G04*
G04 #@! TF.GenerationSoftware,Altium Limited,Altium Designer,22.5.1 (42)*
G04*
G04 Layer_Physical_Order=2*
G04 Layer_Color=16711680*
%FSLAX25Y25*%
%MOIN*%
G70*
G04*
G04 #@! TF.SameCoordinates,000B07ED-3C63-4B1D-8DEB-8DA34B004EC9*
G04*
G04*
G04 #@! TF.FilePolarity,Positive*
G04*
G01*
G75*
%ADD11C,0.00787*%
G04:AMPARAMS|DCode=15|XSize=102.36mil|YSize=185.04mil|CornerRadius=51.18mil|HoleSize=0mil|Usage=FLASHONLY|Rotation=0.000|XOffset=0mil|YOffset=0mil|HoleType=Round|Shape=RoundedRectangle|*
%AMROUNDEDRECTD15*
21,1,0.10236,0.08268,0,0,0.0*
21,1,0.00000,0.18504,0,0,0.0*
1,1,0.10236,0.00000,-0.04134*
1,1,0.10236,0.00000,-0.04134*
1,1,0.10236,0.00000,0.04134*
1,1,0.10236,0.00000,0.04134*
%
%ADD15ROUNDEDRECTD15*%
%ADD16C,0.06102*%
%ADD17R,0.06102X0.06102*%
%ADD18C,0.01000*%
%ADD19C,0.00800*%
%ADD20C,0.05906*%
%ADD21C,0.03350*%
%ADD22C,0.07850*%
%ADD23C,0.02362*%
%ADD24C,0.03000*%
%ADD25R,0.10039X0.09843*%
%ADD26R,0.02953X0.02362*%
%ADD27R,0.03543X0.03740*%
%ADD28O,0.03445X0.00787*%
%ADD29O,0.00787X0.03445*%
%ADD30R,0.12598X0.12598*%
%ADD31R,0.06000X0.06000*%
%ADD32R,0.02520X0.02362*%
%ADD33R,0.02362X0.02953*%
%ADD34R,0.06299X0.02559*%
%ADD35R,0.05512X0.04724*%
%ADD36R,0.02362X0.02520*%
%ADD37R,0.07087X0.04724*%
%ADD38R,0.06102X0.02362*%
%ADD39C,0.01500*%
%ADD40C,0.01981*%
G36*
X453490Y72966D02*
X453490Y72500D01*
Y71685D01*
X455250D01*
Y71285D01*
X455650D01*
Y69604D01*
X456990D01*
X457010Y69604D01*
X457490D01*
X457510Y69604D01*
X458299D01*
Y68941D01*
X458369Y68590D01*
X458568Y68292D01*
X459904Y66955D01*
X460202Y66756D01*
X460553Y66687D01*
X461875D01*
X463248Y65314D01*
Y64867D01*
X463179Y64778D01*
X462991Y64661D01*
Y62301D01*
X462191D01*
Y64438D01*
X461947Y64274D01*
X461660D01*
X461416Y64438D01*
Y62301D01*
Y60165D01*
X461660Y60328D01*
X461947D01*
X462242Y60131D01*
X462309Y60117D01*
X462605Y59599D01*
X462606Y59587D01*
X462472Y59266D01*
Y58597D01*
X462728Y57979D01*
X463201Y57506D01*
X463819Y57250D01*
X464488D01*
X465106Y57506D01*
X465579Y57979D01*
X465835Y58597D01*
Y59266D01*
X465703Y59583D01*
X465706Y59614D01*
X466002Y60113D01*
X466089Y60131D01*
X466385Y60328D01*
X466671D01*
X466967Y60131D01*
X467315Y60061D01*
X467664Y60131D01*
X467960Y60328D01*
X468246D01*
X468490Y60165D01*
Y62301D01*
X469290D01*
Y60165D01*
X469534Y60328D01*
X469821D01*
X470116Y60131D01*
X470421Y59582D01*
X470319Y59334D01*
Y58666D01*
X470575Y58048D01*
X471048Y57575D01*
X471666Y57319D01*
X472334D01*
X472952Y57575D01*
X473425Y58048D01*
X473681Y58666D01*
Y59334D01*
X473578Y59583D01*
X473580Y59613D01*
X473898Y60118D01*
X473963Y60131D01*
X474259Y60328D01*
X474545D01*
X474841Y60131D01*
X475189Y60061D01*
X475538Y60131D01*
X475834Y60328D01*
X476120D01*
X476415Y60131D01*
X476764Y60061D01*
X477113Y60131D01*
X477408Y60328D01*
X477695D01*
X477990Y60131D01*
X478339Y60061D01*
X478688Y60131D01*
X478983Y60328D01*
X479269D01*
X479565Y60131D01*
X479914Y60061D01*
X480262Y60131D01*
X480558Y60328D01*
X480844D01*
X481140Y60131D01*
X481489Y60061D01*
X481837Y60131D01*
X482133Y60328D01*
X482330Y60624D01*
X482400Y60972D01*
Y62269D01*
X482406Y62301D01*
Y63626D01*
X483139Y64359D01*
X486641D01*
X486750Y64250D01*
Y60207D01*
X486250Y59887D01*
X486112Y59914D01*
X485183D01*
Y59003D01*
X484783D01*
Y58603D01*
X482647D01*
X482665Y58577D01*
X482769Y58216D01*
X482665Y57855D01*
X482613Y57777D01*
X482544Y57428D01*
X482613Y57080D01*
X482810Y56784D01*
Y56498D01*
X482613Y56202D01*
X482544Y55853D01*
X482613Y55505D01*
X482810Y55209D01*
Y54923D01*
X482613Y54627D01*
X482544Y54279D01*
X482613Y53930D01*
X482810Y53634D01*
Y53348D01*
X482613Y53053D01*
X482544Y52704D01*
X482613Y52355D01*
X482810Y52060D01*
Y51773D01*
X482613Y51478D01*
X482544Y51129D01*
X482613Y50780D01*
X482810Y50485D01*
Y50199D01*
X482613Y49903D01*
X482544Y49554D01*
X482613Y49206D01*
X482810Y48910D01*
Y48624D01*
X482613Y48328D01*
X482544Y47980D01*
X482613Y47631D01*
X482810Y47335D01*
Y47049D01*
X482613Y46753D01*
X482544Y46405D01*
X482613Y46056D01*
X482810Y45760D01*
Y45474D01*
X482647Y45230D01*
X484783D01*
Y44430D01*
X482647D01*
X482810Y44186D01*
Y43899D01*
X482613Y43604D01*
X482544Y43255D01*
X482613Y42906D01*
X482810Y42611D01*
Y42325D01*
X482613Y42029D01*
X482544Y41680D01*
X482613Y41332D01*
X482810Y41036D01*
Y40750D01*
X482613Y40454D01*
X482544Y40106D01*
X482613Y39757D01*
X482810Y39461D01*
Y39175D01*
X482613Y38879D01*
X482544Y38531D01*
X482613Y38182D01*
X482741Y37991D01*
X482028Y37278D01*
X481837Y37405D01*
X481489Y37474D01*
X481140Y37405D01*
X480844Y37207D01*
X480558D01*
X480262Y37405D01*
X479914Y37474D01*
X479565Y37405D01*
X479269Y37207D01*
X478983D01*
X478688Y37405D01*
X478339Y37474D01*
X477990Y37405D01*
X477695Y37207D01*
X477408D01*
X477113Y37405D01*
X476764Y37474D01*
X476607Y37443D01*
X476177Y37711D01*
X476107Y37800D01*
Y41969D01*
X478049D01*
Y55567D01*
X464451D01*
Y41969D01*
X474272D01*
Y37800D01*
X474202Y37711D01*
X473772Y37443D01*
X473615Y37474D01*
X473266Y37405D01*
X472970Y37207D01*
X472684D01*
X472388Y37405D01*
X472040Y37474D01*
X471691Y37405D01*
X471395Y37207D01*
X471109D01*
X470865Y37371D01*
Y35234D01*
X470065D01*
Y37475D01*
X469791Y37826D01*
X469931Y38166D01*
Y38834D01*
X469675Y39452D01*
X469202Y39925D01*
X468584Y40181D01*
X467916D01*
X467298Y39925D01*
X466825Y39452D01*
X466569Y38834D01*
Y38166D01*
X466689Y37874D01*
X466449Y37424D01*
X466159Y37358D01*
X466089Y37405D01*
X465740Y37474D01*
X465392Y37405D01*
X465096Y37207D01*
X464810D01*
X464514Y37405D01*
X464166Y37474D01*
X463817Y37405D01*
X463521Y37207D01*
X463235D01*
X462940Y37405D01*
X462591Y37474D01*
X462242Y37405D01*
X461947Y37207D01*
X461660D01*
X461365Y37405D01*
X461016Y37474D01*
X460667Y37405D01*
X460372Y37207D01*
X460300Y37200D01*
X459683Y37817D01*
X459690Y37886D01*
X459887Y38182D01*
X459957Y38531D01*
X459887Y38879D01*
X459690Y39175D01*
Y39461D01*
X459887Y39757D01*
X459957Y40106D01*
X459887Y40454D01*
X459690Y40750D01*
Y41036D01*
X459887Y41332D01*
X459957Y41680D01*
X459887Y42029D01*
X459690Y42325D01*
Y42611D01*
X459887Y42906D01*
X459957Y43255D01*
X459887Y43604D01*
X459690Y43899D01*
Y44186D01*
X459853Y44430D01*
X457717D01*
Y45230D01*
X459853D01*
X459690Y45474D01*
Y45760D01*
X459887Y46056D01*
X459957Y46405D01*
X459887Y46753D01*
X459690Y47049D01*
Y47335D01*
X459887Y47631D01*
X459957Y47980D01*
X459887Y48328D01*
X459690Y48624D01*
Y48910D01*
X459887Y49206D01*
X459957Y49554D01*
X459887Y49903D01*
X459690Y50199D01*
Y50485D01*
X459887Y50780D01*
X459957Y51129D01*
X459887Y51478D01*
X459690Y51773D01*
Y52060D01*
X459887Y52355D01*
X459957Y52704D01*
X459887Y53053D01*
X459690Y53348D01*
Y53634D01*
X459887Y53930D01*
X459957Y54279D01*
X459887Y54627D01*
X459690Y54923D01*
Y55209D01*
X459887Y55505D01*
X459957Y55853D01*
X459887Y56202D01*
X459690Y56498D01*
Y56784D01*
X459887Y57080D01*
X459957Y57428D01*
X459887Y57777D01*
X459690Y58073D01*
Y58359D01*
X459853Y58603D01*
X457717D01*
X455449D01*
X455346Y58410D01*
X455215Y58250D01*
X450413D01*
Y58618D01*
X448732D01*
Y59418D01*
X450413D01*
Y60758D01*
X450413Y60777D01*
Y61258D01*
X450413Y61278D01*
Y62618D01*
X448732D01*
Y63018D01*
X448332D01*
Y64777D01*
X447408D01*
X447000Y65000D01*
X446819Y65181D01*
X439462Y72538D01*
X439653Y73000D01*
X453004D01*
X453490Y72966D01*
D02*
G37*
%LPC*%
G36*
X454850Y70885D02*
X453490D01*
Y69604D01*
X454850D01*
Y70885D01*
D02*
G37*
G36*
X449132Y64777D02*
Y63418D01*
X450413D01*
Y64777D01*
X449132D01*
D02*
G37*
G36*
X460616Y64438D02*
X460372Y64274D01*
X460174Y63979D01*
X460105Y63630D01*
Y62701D01*
X460616D01*
Y64438D01*
D02*
G37*
G36*
Y61901D02*
X460105D01*
Y60972D01*
X460174Y60624D01*
X460372Y60328D01*
X460616Y60165D01*
Y61901D01*
D02*
G37*
G36*
X484383Y59914D02*
X483455D01*
X483106Y59845D01*
X482810Y59647D01*
X482647Y59403D01*
X484383D01*
Y59914D01*
D02*
G37*
G36*
X459045D02*
X458117D01*
Y59403D01*
X459853D01*
X459690Y59647D01*
X459394Y59845D01*
X459045Y59914D01*
D02*
G37*
G36*
X457317D02*
X456388D01*
X456039Y59845D01*
X455744Y59647D01*
X455580Y59403D01*
X457317D01*
Y59914D01*
D02*
G37*
%LPD*%
D11*
X1364503Y395144D02*
X1364500D01*
X1370144Y389503D02*
X1370058Y390482D01*
X1369803Y391432D01*
X1369387Y392323D01*
X1368823Y393128D01*
X1368128Y393823D01*
X1367323Y394387D01*
X1366432Y394803D01*
X1365482Y395058D01*
X1364503Y395144D01*
X1370144Y389500D02*
Y389503D01*
X1364503Y395144D02*
X1364500Y395144D01*
X1370144Y389500D02*
X1370144Y389503D01*
Y5250D02*
Y5250D01*
Y5247D02*
X1370144Y5250D01*
X1370144Y5247D02*
Y5250D01*
X1364500Y-394D02*
X1365480Y-308D01*
X1366430Y-54D01*
X1367321Y362D01*
X1368127Y926D01*
X1368822Y1621D01*
X1369387Y2426D01*
X1369803Y3318D01*
X1370058Y4267D01*
X1370144Y5247D01*
X5250Y395144D02*
X5250D01*
X5250Y395144D02*
X5247Y395144D01*
X4267Y395058D01*
X3318Y394803D01*
X2426Y394387D01*
X1621Y393822D01*
X926Y393127D01*
X362Y392321D01*
X-54Y391430D01*
X-308Y390480D01*
X-394Y389500D01*
X5250Y395144D02*
X5247D01*
X-394Y5000D02*
X-290Y3948D01*
X17Y2936D01*
X515Y2003D01*
X1186Y1186D01*
X2003Y515D01*
X2936Y17D01*
X3948Y-290D01*
X5000Y-394D01*
X5250Y395144D02*
X1364500D01*
X1370144Y5250D02*
Y389500D01*
X-394Y5000D02*
X-394Y389500D01*
X5000Y-394D02*
X1364500D01*
X5000D02*
X5000D01*
X5000D02*
X5000D01*
D15*
X1110047Y356750D02*
D03*
X1065953D02*
D03*
D16*
X1097843Y327222D02*
D03*
X1088000D02*
D03*
X1097843Y384309D02*
D03*
X1078158D02*
D03*
D17*
Y327222D02*
D03*
D18*
X472250Y316000D02*
X472750D01*
X428650Y316094D02*
X472156D01*
X472250Y316000D01*
X485000Y62750D02*
X488750D01*
X487283Y88009D02*
X493241D01*
X487274Y88018D02*
X487283Y88009D01*
X493241D02*
X493250Y88000D01*
D19*
X1107500Y315750D02*
Y316000D01*
X1104736Y312986D02*
X1107500Y315750D01*
X1101750Y312986D02*
X1104736D01*
X1082000D02*
X1084986D01*
X1088000Y316000D01*
X485701Y251250D02*
Y345000D01*
Y251152D02*
Y251250D01*
X1104451Y251348D02*
X1123201Y270098D01*
X1131201Y278098D01*
X1123201Y101250D02*
Y270098D01*
X1365201Y251250D02*
Y345000D01*
Y176250D02*
Y251250D01*
Y101250D02*
Y176250D01*
Y26250D02*
Y101250D01*
X1291951D02*
Y176250D01*
Y251250D01*
Y345000D01*
X1216951Y251250D02*
Y345000D01*
Y176250D02*
Y251250D01*
Y101250D02*
Y176250D01*
Y101152D02*
X1254451Y63652D01*
X1216951Y101152D02*
Y101250D01*
X1254451Y26250D02*
Y63652D01*
X1123201Y26250D02*
Y101250D01*
X1104451Y251250D02*
Y251348D01*
X1131201Y278098D02*
Y345000D01*
X1029451Y344902D02*
Y345000D01*
X1010701Y251250D02*
Y326152D01*
X1029451Y344902D01*
X1010701Y251250D02*
X1042250D01*
X1076402Y176250D02*
Y217098D01*
X1042250Y251250D02*
X1076402Y217098D01*
X1048201Y147951D02*
X1076402Y176152D01*
Y176250D01*
X1048201Y101250D02*
Y147951D01*
Y26250D02*
Y101250D01*
X945201Y101152D02*
X973201Y73152D01*
X945201Y101152D02*
Y101250D01*
X973201Y26250D02*
Y73152D01*
X945201Y101250D02*
Y166902D01*
X954451Y176152D02*
Y176250D01*
X945201Y166902D02*
X954451Y176152D01*
Y176250D02*
Y232402D01*
X935701Y251152D02*
Y251250D01*
Y251152D02*
X954451Y232402D01*
Y344902D02*
Y345000D01*
X935701Y326152D02*
X954451Y344902D01*
X935701Y251250D02*
Y326152D01*
X849250Y101250D02*
X888951Y61549D01*
X841951Y101250D02*
X849250D01*
X888951Y26250D02*
Y61549D01*
X860701Y251152D02*
Y251250D01*
Y251152D02*
X879451Y232402D01*
Y176250D02*
Y232402D01*
X860701Y326152D02*
X879451Y344902D01*
Y345000D01*
X860701Y251250D02*
Y326152D01*
X785701D02*
X804451Y344902D01*
Y345000D01*
X785701Y251250D02*
Y326152D01*
Y251152D02*
Y251250D01*
X804451Y176250D02*
Y232402D01*
X785701Y251152D02*
X804451Y232402D01*
Y176152D02*
Y176250D01*
X841951Y101250D02*
Y138652D01*
X804451Y176152D02*
X841951Y138652D01*
X766951Y101152D02*
Y101250D01*
Y101152D02*
X804451Y63652D01*
Y26250D02*
Y63652D01*
X729451Y176152D02*
Y176250D01*
Y176152D02*
X766951Y138652D01*
Y101250D02*
Y138652D01*
X710701Y251152D02*
X729451Y232402D01*
Y176250D02*
Y232402D01*
X710701Y251152D02*
Y251250D01*
Y345000D01*
X691951Y101152D02*
X729451Y63652D01*
Y26250D02*
Y63652D01*
X691951Y101152D02*
Y101250D01*
X654451Y176152D02*
X691951Y138652D01*
X654451Y176152D02*
Y176250D01*
X691951Y101250D02*
Y138652D01*
X623299Y251250D02*
Y257873D01*
X625234Y259808D01*
Y268176D01*
X623299Y270111D02*
X625234Y268176D01*
X635701Y251152D02*
X654451Y232402D01*
Y176250D02*
Y232402D01*
X635701Y251152D02*
Y251250D01*
X643984Y184808D02*
Y193176D01*
X642049Y182873D02*
X643984Y184808D01*
X642049Y176250D02*
Y182873D01*
Y195111D02*
X643984Y193176D01*
X635701Y251250D02*
Y345000D01*
X607701Y26348D02*
X616951Y35598D01*
X607701Y26250D02*
Y26348D01*
X616951Y35598D02*
Y101250D01*
Y138652D01*
X579451Y176152D02*
Y176250D01*
Y176152D02*
X616951Y138652D01*
X560701Y251152D02*
X579451Y232402D01*
X560701Y251152D02*
Y251250D01*
X579451Y176250D02*
Y232402D01*
X560701Y251250D02*
Y345000D01*
X504451Y176152D02*
X505823Y174780D01*
X505921D01*
X541951Y101250D02*
Y138750D01*
X504451Y176152D02*
Y232402D01*
X505921Y174780D02*
X541951Y138750D01*
X485701Y251152D02*
X504451Y232402D01*
X405549Y156875D02*
X441799Y120625D01*
Y101250D02*
Y120625D01*
X405549Y156875D02*
Y176250D01*
X386799Y215142D02*
X405549Y196391D01*
Y176250D02*
Y196391D01*
X386799Y215142D02*
Y251250D01*
X378210Y273664D02*
X386799Y265075D01*
X378210Y273664D02*
Y298460D01*
X392250Y312500D01*
X386799Y251250D02*
Y265075D01*
X391951Y345000D02*
X392250Y344701D01*
Y320000D02*
Y344701D01*
X316951Y344902D02*
X335701Y326152D01*
Y251250D02*
Y326152D01*
X316951Y344902D02*
Y345000D01*
X335701Y251152D02*
X354451Y232402D01*
Y176250D02*
Y232402D01*
X335701Y251152D02*
Y251250D01*
X354451Y176152D02*
X388000Y142602D01*
Y105201D02*
X390481Y102720D01*
X388000Y105201D02*
Y142602D01*
X390579Y102720D02*
X391951Y101348D01*
X390481Y102720D02*
X390579D01*
X391951Y101152D02*
Y101348D01*
X354451Y176152D02*
Y176250D01*
X391951Y101152D02*
X419951Y73152D01*
Y26250D02*
Y73152D01*
X270201Y54402D02*
X316951Y101152D01*
Y101250D01*
X270201Y26250D02*
Y54402D01*
X316951Y101250D02*
Y138652D01*
X279451Y176152D02*
Y176250D01*
Y176152D02*
X316951Y138652D01*
X268984Y184808D02*
Y193176D01*
X267049Y182873D02*
X268984Y184808D01*
X267049Y176250D02*
Y182873D01*
Y195111D02*
X268984Y193176D01*
X260701Y251152D02*
Y251250D01*
Y251152D02*
X279451Y232402D01*
Y176250D02*
Y232402D01*
X241951Y344902D02*
X260701Y326152D01*
X241951Y344902D02*
Y345000D01*
X260701Y251250D02*
Y326152D01*
X166951Y344902D02*
X185701Y326152D01*
Y251250D02*
Y326152D01*
X166951Y344902D02*
Y345000D01*
X178250Y351750D02*
X186250Y343750D01*
X185701Y251152D02*
X204451Y232402D01*
Y176250D02*
Y232402D01*
X185701Y251152D02*
Y251250D01*
X241951Y101250D02*
Y138652D01*
X204451Y176152D02*
X241951Y138652D01*
X204451Y176152D02*
Y176250D01*
X176451Y26250D02*
Y35652D01*
X241951Y101152D01*
Y101250D01*
X82701Y63652D02*
X120201Y101152D01*
Y101250D01*
X82701Y26250D02*
Y63652D01*
X109609Y109746D02*
Y118207D01*
X107799Y107936D02*
X109609Y109746D01*
X107799Y120017D02*
X109609Y118207D01*
X107799Y120017D02*
Y132424D01*
X108375Y133000D01*
X107799Y101250D02*
Y107936D01*
X120201Y101250D02*
Y157247D01*
X101297Y176152D02*
Y176250D01*
Y176152D02*
X120201Y157247D01*
X91951Y251152D02*
X101297Y241806D01*
X91951Y251152D02*
Y251250D01*
X101297Y176250D02*
Y241806D01*
X73201Y344902D02*
X91951Y326152D01*
Y251250D02*
Y326152D01*
X73201Y344902D02*
Y345000D01*
X1303250Y258000D02*
X1311250Y250000D01*
X1303250Y258000D02*
Y273000D01*
X422000Y286000D02*
X427750Y291750D01*
X463500D01*
X422000Y273000D02*
Y286000D01*
X497000Y258000D02*
Y273000D01*
Y258000D02*
X505000Y250000D01*
X347000Y258000D02*
Y273000D01*
Y258000D02*
X355000Y250000D01*
X28250Y258000D02*
Y273000D01*
Y258000D02*
X36250Y250000D01*
X103250Y351750D02*
Y366750D01*
Y351750D02*
X111250Y343750D01*
X178250Y351750D02*
Y366750D01*
X253250Y351750D02*
X261250Y343750D01*
X253250Y351750D02*
Y366750D01*
X328250Y351750D02*
X336250Y343750D01*
X328250Y351750D02*
Y366750D01*
X422000Y351750D02*
X430000Y343750D01*
X422000Y351750D02*
Y366750D01*
X497000Y351750D02*
X505000Y343750D01*
X497000Y351750D02*
Y366750D01*
X572000Y351750D02*
X580000Y343750D01*
X572000Y351750D02*
Y366750D01*
X647000Y351750D02*
X655000Y343750D01*
X647000Y351750D02*
Y366750D01*
X740750Y351750D02*
X748750Y343750D01*
X740750Y351750D02*
Y366750D01*
X815750Y351750D02*
Y366750D01*
Y351750D02*
X823750Y343750D01*
X890750Y351750D02*
X898750Y343750D01*
X890750Y351750D02*
Y366750D01*
X965750Y351750D02*
X973750Y343750D01*
X965750Y351750D02*
Y366750D01*
X1078204Y343796D02*
Y384263D01*
Y343796D02*
X1078250Y343750D01*
X1078158Y384309D02*
X1078204Y384263D01*
X1153250Y351750D02*
Y366750D01*
Y351750D02*
X1161250Y343750D01*
X1228250Y351750D02*
Y366750D01*
Y351750D02*
X1236250Y343750D01*
X1303250Y351750D02*
Y366750D01*
Y351750D02*
X1311250Y343750D01*
X9500Y351750D02*
X17500Y343750D01*
X9500Y351750D02*
Y366750D01*
X1037734Y34808D02*
Y43176D01*
X1035799Y57299D02*
X1036500Y58000D01*
X1035799Y26250D02*
Y32873D01*
X1037734Y34808D01*
X1035799Y45111D02*
X1037734Y43176D01*
X1035799Y45111D02*
Y57299D01*
X960799Y32873D02*
X962734Y34808D01*
Y43176D01*
X960799Y45111D02*
X962734Y43176D01*
X960799Y26250D02*
Y32873D01*
Y45111D02*
Y57299D01*
X961500Y58000D01*
X876549Y32936D02*
X878359Y34746D01*
Y43207D01*
X876549Y45017D02*
X878359Y43207D01*
X876549Y45017D02*
Y57424D01*
X877125Y58000D01*
X876549Y26250D02*
Y32936D01*
X793984Y34808D02*
Y43176D01*
X792049Y45111D02*
X793984Y43176D01*
X792049Y45111D02*
Y57299D01*
X792750Y58000D01*
X792049Y26250D02*
Y32873D01*
X793984Y34808D01*
X718984D02*
Y43176D01*
X717049Y45111D02*
X718984Y43176D01*
X717049Y45111D02*
Y57299D01*
X717750Y58000D01*
X717049Y26250D02*
Y32873D01*
X718984Y34808D01*
X595299Y32936D02*
X597109Y34746D01*
Y43207D01*
X595299Y26250D02*
Y32936D01*
Y45017D02*
X597109Y43207D01*
X595299Y45017D02*
Y57424D01*
X595875Y58000D01*
X531484Y109808D02*
Y118200D01*
X529598Y120087D02*
Y132348D01*
X529549Y101250D02*
Y107873D01*
X531484Y109808D01*
X529598Y120087D02*
X531484Y118200D01*
X529598Y132348D02*
X530250Y133000D01*
X604549Y107873D02*
X606484Y109808D01*
X604549Y120111D02*
Y132299D01*
X605250Y133000D01*
X604549Y101250D02*
Y107873D01*
X606484Y109808D02*
Y118176D01*
X604549Y120111D02*
X606484Y118176D01*
X679549Y107873D02*
X681484Y109808D01*
Y118176D01*
X679549Y120111D02*
Y132299D01*
X680250Y133000D01*
X679549Y101250D02*
Y107873D01*
Y120111D02*
X681484Y118176D01*
X754549Y107873D02*
X756484Y109808D01*
Y118450D01*
X755098Y132848D02*
X755250Y133000D01*
X754549Y101250D02*
Y107873D01*
X755098Y119837D02*
X756484Y118450D01*
X755098Y119837D02*
Y132848D01*
X829549Y101250D02*
Y107873D01*
X831484Y109808D01*
Y118176D01*
X829549Y120111D02*
X831484Y118176D01*
X829549Y120111D02*
Y132299D01*
X830250Y133000D01*
X934609Y109746D02*
Y118207D01*
X932799Y120017D02*
X934609Y118207D01*
X932799Y120017D02*
Y132424D01*
Y101250D02*
Y107936D01*
X934609Y109746D01*
X932799Y132424D02*
X933375Y133000D01*
X1035799Y120111D02*
X1037734Y118176D01*
X1035799Y132299D02*
X1036500Y133000D01*
X1035799Y101250D02*
Y107873D01*
X1037734Y109808D01*
Y118176D01*
X1035799Y120111D02*
Y132299D01*
X942049Y182873D02*
X943984Y184808D01*
X942049Y195111D02*
X943984Y193176D01*
X942049Y207299D02*
X942750Y208000D01*
X942049Y176250D02*
Y182873D01*
X943984Y184808D02*
Y193176D01*
X942049Y195111D02*
Y207299D01*
X867049Y182873D02*
X868984Y184808D01*
Y193176D01*
X867049Y195111D02*
X868984Y193176D01*
X867049Y176250D02*
Y182873D01*
Y195111D02*
Y207299D01*
X867750Y208000D01*
X792049Y182873D02*
X793984Y184808D01*
X792049Y195111D02*
Y207299D01*
Y176250D02*
Y182873D01*
X793984Y184808D02*
Y193176D01*
X792049Y195111D02*
X793984Y193176D01*
X792049Y207299D02*
X792750Y208000D01*
X717223Y195024D02*
X718984Y193263D01*
X717223Y195024D02*
Y207473D01*
X717049Y176250D02*
Y182873D01*
X718984Y184808D01*
Y193263D01*
X717223Y207473D02*
X717750Y208000D01*
X642049Y195111D02*
Y207299D01*
X642750Y208000D01*
X567049Y207299D02*
X567750Y208000D01*
X567049Y176250D02*
Y182873D01*
X568984Y184808D01*
Y193176D01*
X567049Y195111D02*
X568984Y193176D01*
X567049Y195111D02*
Y207299D01*
X473299Y257873D02*
X475234Y259808D01*
Y268513D01*
X473973Y269774D02*
Y282973D01*
X473299Y251250D02*
Y257873D01*
X473973Y269774D02*
X475234Y268513D01*
X473973Y282973D02*
X474000Y283000D01*
X550234Y259808D02*
Y268176D01*
X548299Y270111D02*
X550234Y268176D01*
X548299Y270111D02*
Y282299D01*
Y251250D02*
Y257873D01*
X550234Y259808D01*
X548299Y282299D02*
X549000Y283000D01*
X623299Y270111D02*
Y282299D01*
X624000Y283000D01*
X698299Y257873D02*
X700234Y259808D01*
Y268176D01*
X698299Y270111D02*
X700234Y268176D01*
X698299Y282299D02*
X699000Y283000D01*
X698299Y251250D02*
Y257873D01*
Y270111D02*
Y282299D01*
X773299Y257873D02*
X775234Y259808D01*
X773299Y282299D02*
X774000Y283000D01*
X773299Y251250D02*
Y257873D01*
X775234Y259808D02*
Y268176D01*
X773299Y270111D02*
X775234Y268176D01*
X773299Y270111D02*
Y282299D01*
X848299Y257873D02*
X850234Y259808D01*
X848299Y270111D02*
Y282299D01*
X849000Y283000D01*
X848299Y251250D02*
Y257873D01*
X850234Y259808D02*
Y268176D01*
X848299Y270111D02*
X850234Y268176D01*
X923299Y257873D02*
X925234Y259808D01*
Y268176D01*
X923299Y270111D02*
X925234Y268176D01*
X923299Y282299D02*
X924000Y283000D01*
X923299Y251250D02*
Y257873D01*
Y270111D02*
Y282299D01*
X998299Y257873D02*
X1000234Y259808D01*
Y268176D01*
X998299Y270111D02*
X1000234Y268176D01*
X998299Y282299D02*
X999000Y283000D01*
X998299Y251250D02*
Y257873D01*
Y270111D02*
Y282299D01*
X1092049Y251250D02*
Y257873D01*
X1093984Y259808D01*
Y268176D01*
X1092049Y270111D02*
X1093984Y268176D01*
X1092049Y270111D02*
Y282299D01*
X1092750Y283000D01*
X1065859Y184770D02*
Y193400D01*
X1064410Y194849D02*
Y207785D01*
X1064625Y208000D01*
X1064000Y176250D02*
Y182911D01*
X1065859Y184770D01*
X1064410Y194849D02*
X1065859Y193400D01*
X1110799Y107873D02*
X1112734Y109808D01*
X1111500Y119761D02*
X1112734Y118526D01*
X1110799Y101250D02*
Y107873D01*
X1112734Y109808D02*
Y118526D01*
X1111500Y119761D02*
Y133000D01*
X1112734Y34808D02*
Y43176D01*
X1110799Y45111D02*
X1112734Y43176D01*
X1110799Y57299D02*
X1111500Y58000D01*
X1110799Y26250D02*
Y32873D01*
X1112734Y34808D01*
X1110799Y45111D02*
Y57299D01*
X1206484Y109808D02*
Y118526D01*
X1205250Y119761D02*
X1206484Y118526D01*
X1204549Y101250D02*
Y107873D01*
X1206484Y109808D01*
X1205250Y119761D02*
Y133000D01*
X1206484Y184808D02*
Y193176D01*
X1204549Y195111D02*
X1206484Y193176D01*
X1204549Y176250D02*
Y182873D01*
X1206484Y184808D01*
X1204549Y195111D02*
Y207299D01*
X1205250Y208000D01*
X1204549Y270111D02*
X1206484Y268176D01*
X1204549Y251250D02*
Y257873D01*
X1206484Y259808D01*
Y268176D01*
X1204549Y270111D02*
Y282299D01*
X1205250Y283000D01*
X1279549Y257873D02*
X1281484Y259808D01*
Y268176D01*
X1279549Y270111D02*
X1281484Y268176D01*
X1279549Y270111D02*
Y282299D01*
X1280250Y283000D01*
X1279549Y251250D02*
Y257873D01*
Y182873D02*
X1281484Y184808D01*
X1279549Y176250D02*
Y182873D01*
X1281484Y184808D02*
Y193176D01*
X1279549Y195111D02*
X1281484Y193176D01*
X1279549Y195111D02*
Y207299D01*
X1280250Y208000D01*
X1281484Y109808D02*
Y118176D01*
X1279549Y120111D02*
X1281484Y118176D01*
X1279549Y120111D02*
Y132299D01*
Y101250D02*
Y107873D01*
X1281484Y109808D01*
X1279549Y132299D02*
X1280250Y133000D01*
X1242049Y32873D02*
X1243984Y34808D01*
Y43526D01*
X1242750Y44761D02*
X1243984Y43526D01*
X1242750Y44761D02*
Y58000D01*
X1242049Y26250D02*
Y32873D01*
X1356484Y30033D02*
Y41139D01*
X1355250Y42373D02*
X1356484Y41139D01*
X1355250Y42373D02*
Y58000D01*
X1352799Y26250D02*
Y26348D01*
X1356484Y30033D01*
X1352799Y106998D02*
X1356484Y110683D01*
Y118964D01*
X1355250Y120198D02*
X1356484Y118964D01*
X1352799Y101250D02*
Y106998D01*
X1355250Y120198D02*
Y133000D01*
X1354171Y177622D02*
Y182684D01*
X1356484Y184997D01*
X1354348Y195306D02*
Y207098D01*
X1352799Y176250D02*
X1354171Y177622D01*
X1356484Y184997D02*
Y193170D01*
X1354348Y195306D02*
X1356484Y193170D01*
X1354348Y207098D02*
X1355250Y208000D01*
X1352799Y256998D02*
X1356484Y260683D01*
X1355250Y270198D02*
X1356484Y268964D01*
X1352799Y251250D02*
Y256998D01*
X1356484Y260683D02*
Y268964D01*
X1355250Y270198D02*
Y283000D01*
X1352799Y350748D02*
X1356484Y354433D01*
Y362714D01*
X1355250Y363948D02*
X1356484Y362714D01*
X1355250Y363948D02*
Y376750D01*
X1352799Y345000D02*
Y350748D01*
X1279549Y363861D02*
X1281484Y361926D01*
X1279549Y363861D02*
Y376049D01*
X1280250Y376750D01*
X1279549Y345000D02*
Y351623D01*
X1281484Y353558D01*
Y361926D01*
X1206484Y353558D02*
Y362276D01*
X1205250Y363510D02*
X1206484Y362276D01*
X1204549Y345000D02*
Y351623D01*
X1206484Y353558D01*
X1205250Y363510D02*
Y376750D01*
X1097843Y384309D02*
X1109191D01*
X1118799Y345000D02*
Y374701D01*
X1109191Y384309D02*
X1118799Y374701D01*
X1017049Y363861D02*
Y376049D01*
Y345000D02*
Y351623D01*
X1018984Y353558D01*
Y361926D01*
X1017049Y363861D02*
X1018984Y361926D01*
X1017049Y376049D02*
X1017750Y376750D01*
X942049Y363861D02*
X943984Y361926D01*
X942049Y345000D02*
Y351623D01*
X943984Y353558D01*
Y361926D01*
X942049Y363861D02*
Y376049D01*
X942750Y376750D01*
X867049Y351623D02*
X868984Y353558D01*
Y361926D01*
X867049Y345000D02*
Y351623D01*
Y363861D02*
X868984Y361926D01*
X867049Y363861D02*
Y376049D01*
X867750Y376750D01*
X792049Y345000D02*
Y351623D01*
X793984Y353558D01*
Y361926D01*
X792049Y363861D02*
X793984Y361926D01*
X792049Y363861D02*
Y376049D01*
X792750Y376750D01*
X700234Y353558D02*
Y361926D01*
X698299Y363861D02*
X700234Y361926D01*
X698299Y363861D02*
Y376049D01*
X699000Y376750D01*
X698299Y345000D02*
Y351623D01*
X700234Y353558D01*
X625234D02*
Y361926D01*
X623299Y363861D02*
X625234Y361926D01*
X623299Y363861D02*
Y376049D01*
Y345000D02*
Y351623D01*
X625234Y353558D01*
X623299Y376049D02*
X624000Y376750D01*
X548299Y351623D02*
X550234Y353558D01*
Y361926D01*
X548299Y376049D02*
X549000Y376750D01*
X548299Y345000D02*
Y351623D01*
Y363861D02*
X550234Y361926D01*
X548299Y363861D02*
Y376049D01*
X473299Y351623D02*
X475234Y353558D01*
Y361926D01*
X473299Y363861D02*
Y376049D01*
Y345000D02*
Y351623D01*
Y363861D02*
X475234Y361926D01*
X473299Y376049D02*
X474000Y376750D01*
X454201Y101250D02*
Y103854D01*
X447016Y111039D02*
X454201Y103854D01*
X447016Y111039D02*
Y115642D01*
X455250Y123876D01*
Y133000D01*
X60799Y351623D02*
X62734Y353558D01*
X60799Y345000D02*
Y351623D01*
X62734Y353558D02*
Y361926D01*
X60799Y363861D02*
X62734Y361926D01*
X60799Y363861D02*
Y376049D01*
X61500Y376750D01*
X154549Y351623D02*
X156484Y353558D01*
X154549Y363861D02*
X156484Y361926D01*
X154549Y345000D02*
Y351623D01*
X156484Y353558D02*
Y361926D01*
X154549Y363861D02*
Y376049D01*
X155250Y376750D01*
X229549Y351623D02*
X231484Y353558D01*
X229549Y363861D02*
X231484Y361926D01*
X229549Y363861D02*
Y376049D01*
Y345000D02*
Y351623D01*
X231484Y353558D02*
Y361926D01*
X229549Y376049D02*
X230250Y376750D01*
X306484Y353558D02*
Y361926D01*
X304549Y376049D02*
X305250Y376750D01*
X304549Y345000D02*
Y351623D01*
X306484Y353558D01*
X304549Y363861D02*
X306484Y361926D01*
X304549Y363861D02*
Y376049D01*
X381484Y353558D02*
Y362276D01*
X380250Y363510D02*
Y376750D01*
X379549Y345000D02*
Y351623D01*
X381484Y353558D01*
X380250Y363510D02*
X381484Y362276D01*
X417951Y176250D02*
Y176348D01*
X409516Y184783D02*
X417951Y176348D01*
X409516Y184783D02*
Y190642D01*
X417750Y198876D01*
Y208000D01*
X394380Y278479D02*
X398902Y283000D01*
X394380Y271566D02*
Y278479D01*
X398902Y283000D02*
X399000D01*
X390766Y267952D02*
X394380Y271566D01*
X390766Y259784D02*
Y267952D01*
Y259784D02*
X399201Y251348D01*
Y251250D02*
Y251348D01*
X323299Y257873D02*
X325234Y259808D01*
Y268176D01*
X323299Y270111D02*
X325234Y268176D01*
X323299Y270111D02*
Y282299D01*
X324000Y283000D01*
X323299Y251250D02*
Y257873D01*
X248299D02*
X250234Y259808D01*
Y268176D01*
X248299Y270111D02*
Y282299D01*
Y251250D02*
Y257873D01*
Y270111D02*
X250234Y268176D01*
X248299Y282299D02*
X249000Y283000D01*
X175234Y259808D02*
Y268526D01*
X173299Y251250D02*
Y257873D01*
X175234Y259808D01*
X174000Y269760D02*
X175234Y268526D01*
X174000Y269760D02*
Y283000D01*
X79549Y257873D02*
X81484Y259808D01*
Y268176D01*
X79549Y251250D02*
Y257873D01*
Y270111D02*
X81484Y268176D01*
X79549Y270111D02*
Y282299D01*
X80250Y283000D01*
X493984Y184808D02*
Y193176D01*
X492049Y195111D02*
X493984Y193176D01*
X492049Y176250D02*
Y182873D01*
X493984Y184808D01*
X492049Y195111D02*
Y207299D01*
X492750Y208000D01*
X417652D02*
X417750D01*
X342049Y195111D02*
X343984Y193176D01*
X342049Y176250D02*
Y182873D01*
X343984Y184808D01*
Y193176D01*
X342049Y195111D02*
Y207299D01*
X342750Y208000D01*
X267049Y195111D02*
Y207299D01*
X267750Y208000D01*
X192049Y182873D02*
X193984Y184808D01*
X192049Y195111D02*
X193984Y193176D01*
X192049Y195111D02*
Y207299D01*
Y176250D02*
Y182873D01*
X193984Y184808D02*
Y193176D01*
X192049Y207299D02*
X192750Y208000D01*
X90859Y184823D02*
Y193169D01*
X88895Y195133D02*
X90859Y193169D01*
X88895Y195133D02*
Y207270D01*
X89625Y208000D01*
X88895Y176250D02*
Y182859D01*
X90859Y184823D01*
X229549Y107873D02*
X231484Y109808D01*
Y118176D01*
X229549Y120111D02*
Y132299D01*
Y101250D02*
Y107873D01*
Y120111D02*
X231484Y118176D01*
X229549Y132299D02*
X230250Y133000D01*
X304549Y107873D02*
X306484Y109808D01*
X304848Y119962D02*
Y132598D01*
X304549Y101250D02*
Y107873D01*
X306484Y109808D02*
Y118325D01*
X304848Y119962D02*
X306484Y118325D01*
X304848Y132598D02*
X305250Y133000D01*
X380921Y102622D02*
Y108559D01*
X381484Y109122D01*
X379549Y101250D02*
X380921Y102622D01*
X381484Y109122D02*
Y118183D01*
X380250Y119418D02*
X381484Y118183D01*
X380250Y119418D02*
Y133000D01*
X408375Y44792D02*
X409609Y43558D01*
X408375Y44792D02*
Y58000D01*
X407549Y26250D02*
Y32811D01*
X409609Y34871D01*
Y43558D01*
X257799Y32936D02*
X259609Y34746D01*
Y43207D01*
X257799Y45017D02*
X259609Y43207D01*
X257799Y45017D02*
Y57424D01*
Y26250D02*
Y32936D01*
Y57424D02*
X258375Y58000D01*
X164049Y32936D02*
X165859Y34746D01*
X164049Y45017D02*
X165859Y43207D01*
X164049Y26250D02*
Y32936D01*
X165859Y34746D02*
Y43207D01*
X164049Y45017D02*
Y57424D01*
X164625Y58000D01*
X70299Y32936D02*
X72109Y34746D01*
Y43495D01*
X70875Y44729D02*
X72109Y43495D01*
X70875Y44729D02*
Y58000D01*
X70299Y26250D02*
Y32936D01*
X446264Y31000D02*
X453500D01*
X461250Y38750D01*
X441736Y31000D02*
X441764Y30972D01*
Y28625D02*
Y30972D01*
X493683Y59003D02*
X493734Y59054D01*
X441764Y28625D02*
X460698D01*
X462000Y28089D02*
X465740Y31829D01*
X462000Y17839D02*
Y28089D01*
X463300Y17300D02*
Y27550D01*
X467315Y31565D01*
X465740Y31829D02*
Y35234D01*
X467315Y31565D02*
Y35234D01*
X470465Y26285D02*
Y35234D01*
Y26285D02*
X470500Y26250D01*
X472040Y30978D02*
X473000Y30018D01*
X472040Y30978D02*
Y35234D01*
X475189Y44189D02*
X475500Y44500D01*
X475189Y35234D02*
Y44189D01*
X487250Y89041D02*
Y94285D01*
Y88041D02*
Y89041D01*
X468250Y38077D02*
Y38500D01*
Y38077D02*
X468884Y37444D01*
Y35241D02*
X468890Y35234D01*
X468884Y35241D02*
Y37444D01*
X448794Y44830D02*
X457717D01*
X464153Y58931D02*
X464160Y58937D01*
Y62295D01*
X464166Y62301D01*
X472000Y59000D02*
X472033Y59033D01*
Y62295D01*
X472040Y62301D01*
X468884Y57884D02*
Y62295D01*
X467847Y56847D02*
X468884Y57884D01*
X481753Y59003D02*
X484784D01*
X468884Y62295D02*
X468890Y62301D01*
X457750Y62250D02*
X457801Y62301D01*
X448732Y59018D02*
X448747Y59003D01*
X460698Y28625D02*
X464166Y32093D01*
X455462Y11300D02*
X462000Y17839D01*
X456000Y10000D02*
X463300Y17300D01*
X432000Y4750D02*
Y9000D01*
X434300Y11300D01*
X455462D01*
X449500Y8750D02*
X450750Y10000D01*
X456000D01*
X449500Y4750D02*
Y8750D01*
X464166Y32093D02*
Y35234D01*
X466500Y26250D02*
X466663Y26412D01*
Y28163D01*
X468890Y30390D01*
Y35234D01*
X441764Y26250D02*
Y28625D01*
X1077969Y313018D02*
X1078000Y312986D01*
X1074000Y313018D02*
X1077969D01*
X1078000Y323750D02*
Y327065D01*
Y317514D02*
Y323750D01*
X1082000Y319750D01*
Y317514D02*
Y319750D01*
X1078000Y327065D02*
X1078158Y327222D01*
X1097796Y323500D02*
Y327176D01*
Y317560D02*
Y323500D01*
X1098000D02*
X1101750Y319750D01*
X1097796Y323500D02*
X1098000D01*
X1101750Y317514D02*
Y319750D01*
X1097750Y317514D02*
X1097796Y317560D01*
Y327176D02*
X1097843Y327222D01*
X1093750Y313018D02*
X1097719D01*
X1097750Y312986D01*
X498986Y94268D02*
Y99018D01*
X503514Y89254D02*
Y94268D01*
Y89254D02*
X504750Y88018D01*
X515226D01*
X520000D01*
X524250Y70679D02*
Y83768D01*
X520000Y88018D02*
X524250Y83768D01*
X522950Y71218D02*
Y80068D01*
X515226Y83018D02*
X520000D01*
X522950Y80068D01*
X515226Y78018D02*
X520000D01*
X521650Y71918D02*
Y76368D01*
X520000Y78018D02*
X521650Y76368D01*
X482323Y68518D02*
X518250D01*
X521650Y71918D01*
X482854Y67210D02*
X518942D01*
X522950Y71218D01*
X519481Y65910D02*
X524250Y70679D01*
X483392Y65910D02*
X519481D01*
X481489Y64006D02*
X483392Y65910D01*
X478345Y64540D02*
X482323Y68518D01*
X481050Y71318D02*
X482750Y73018D01*
X481050Y69083D02*
Y71318D01*
X482750Y73018D02*
X487274D01*
X476770Y64803D02*
X481050Y69083D01*
X482750Y83018D02*
X487274D01*
X478450Y78718D02*
X482750Y83018D01*
X478450Y70160D02*
Y78718D01*
X482750Y78018D02*
X487274D01*
X479750Y69622D02*
Y75018D01*
X482750Y78018D01*
X475196Y65067D02*
X479750Y69622D01*
X473615Y65325D02*
X478450Y70160D01*
X473615Y62301D02*
Y65325D01*
X475196Y62308D02*
Y65067D01*
X475189Y62301D02*
X475196Y62308D01*
X478345D02*
Y64540D01*
X479914Y64270D02*
X482854Y67210D01*
X476770Y62308D02*
Y64803D01*
X481489Y62301D02*
Y64006D01*
X479914Y63624D02*
Y64270D01*
X476764Y62301D02*
X476770Y62308D01*
X478339Y62301D02*
X478345Y62308D01*
X487250Y89041D02*
X487274Y89018D01*
X475250Y72518D02*
Y75535D01*
X472040Y69307D02*
X475250Y72518D01*
X472040Y62301D02*
Y69307D01*
X471250Y71018D02*
Y75535D01*
X470250Y66268D02*
Y70018D01*
X471250Y71018D01*
X468890Y64908D02*
X470250Y66268D01*
X468890Y62301D02*
Y64908D01*
X470465Y62301D02*
Y66053D01*
X470250Y66268D02*
X470465Y66053D01*
X477500Y19518D02*
Y29518D01*
X476750Y30268D02*
X477500Y29518D01*
X475250Y30268D02*
X476750D01*
X478500Y18518D02*
X481281D01*
X477500Y19518D02*
X478500Y18518D01*
X477419Y13614D02*
Y17598D01*
X476750Y18268D02*
X477419Y17598D01*
X475250Y18268D02*
X476750D01*
X481281Y18518D02*
X481750Y18049D01*
Y10858D02*
Y18049D01*
X473000Y30018D02*
X473662D01*
X474500Y26781D02*
Y29179D01*
X473662Y30018D02*
X474500Y29179D01*
X473615Y31903D02*
Y35234D01*
Y31903D02*
X475250Y30268D01*
X474500Y19018D02*
X475250Y18268D01*
X474500Y19018D02*
Y22254D01*
X481750Y10858D02*
X485687Y6921D01*
X486081D01*
X492557D02*
X494171Y8535D01*
X486081Y6921D02*
X492557D01*
X494171Y8535D02*
X494250D01*
X469329Y12000D02*
X470943Y13614D01*
X477419D01*
X469250Y12000D02*
X469329D01*
X448732Y44768D02*
X448794Y44830D01*
X493709D02*
X493734Y44804D01*
X484784Y44830D02*
X493709D01*
X484784Y59003D02*
X493683D01*
X464166Y62301D02*
Y65694D01*
X462255Y67604D02*
X464166Y65694D01*
X460553Y67604D02*
X462255D01*
X463216Y68554D02*
Y70790D01*
X465740Y62301D02*
Y66030D01*
X463216Y68554D02*
X465740Y66030D01*
X459216Y68941D02*
X460553Y67604D01*
X459216Y68941D02*
Y71322D01*
X467309Y62308D02*
Y70698D01*
X467216Y70790D02*
X467309Y70698D01*
Y62308D02*
X467315Y62301D01*
D20*
X1341750Y58000D02*
D03*
X1316750Y48000D02*
D03*
X1229250Y58000D02*
D03*
X1204250Y48000D02*
D03*
X1098000Y58000D02*
D03*
X1073000Y48000D02*
D03*
X1023000Y58000D02*
D03*
X998000Y48000D02*
D03*
X948000Y58000D02*
D03*
X923000Y48000D02*
D03*
X863625Y58000D02*
D03*
X838625Y48000D02*
D03*
X779250Y58000D02*
D03*
X754250Y48000D02*
D03*
X704250Y58000D02*
D03*
X679250Y48000D02*
D03*
X582375Y58000D02*
D03*
X557375Y48000D02*
D03*
X394875Y58000D02*
D03*
X369875Y48000D02*
D03*
X244875Y58000D02*
D03*
X219875Y48000D02*
D03*
X151125Y58000D02*
D03*
X126125Y48000D02*
D03*
X57375Y58000D02*
D03*
X32375Y48000D02*
D03*
X1341750Y133000D02*
D03*
X1316750Y123000D02*
D03*
X1266750Y133000D02*
D03*
X1241750Y123000D02*
D03*
X1191750Y133000D02*
D03*
X1166750Y123000D02*
D03*
X1098000Y133000D02*
D03*
X1073000Y123000D02*
D03*
X1023000Y133000D02*
D03*
X998000Y123000D02*
D03*
X919875Y133000D02*
D03*
X894875Y123000D02*
D03*
X816750Y133000D02*
D03*
X791750Y123000D02*
D03*
X741750Y133000D02*
D03*
X716750Y123000D02*
D03*
X666750Y133000D02*
D03*
X641750Y123000D02*
D03*
X591750Y133000D02*
D03*
X566750Y123000D02*
D03*
X516750Y133000D02*
D03*
X491750Y123000D02*
D03*
X441750Y133000D02*
D03*
X416750Y123000D02*
D03*
X366750Y133000D02*
D03*
X341750Y123000D02*
D03*
X291750Y133000D02*
D03*
X266750Y123000D02*
D03*
X216750Y133000D02*
D03*
X191750Y123000D02*
D03*
X94875Y133000D02*
D03*
X69875Y123000D02*
D03*
X1341750Y208000D02*
D03*
X1316750Y198000D02*
D03*
X1266750Y208000D02*
D03*
X1241750Y198000D02*
D03*
X1191750Y208000D02*
D03*
X1166750Y198000D02*
D03*
X1051125Y208000D02*
D03*
X1026125Y198000D02*
D03*
X929250Y208000D02*
D03*
X904250Y198000D02*
D03*
X854250Y208000D02*
D03*
X829250Y198000D02*
D03*
X779250Y208000D02*
D03*
X754250Y198000D02*
D03*
X704250Y208000D02*
D03*
X679250Y198000D02*
D03*
X629250Y208000D02*
D03*
X604250Y198000D02*
D03*
X554250Y208000D02*
D03*
X529250Y198000D02*
D03*
X479250Y208000D02*
D03*
X454250Y198000D02*
D03*
X404250Y208000D02*
D03*
X379250Y198000D02*
D03*
X329250Y208000D02*
D03*
X304250Y198000D02*
D03*
X254250Y208000D02*
D03*
X229250Y198000D02*
D03*
X179250Y208000D02*
D03*
X154250Y198000D02*
D03*
X76125Y208000D02*
D03*
X51125Y198000D02*
D03*
X1341750Y283000D02*
D03*
X1316750Y273000D02*
D03*
X1266750Y283000D02*
D03*
X1241750Y273000D02*
D03*
X1191750Y283000D02*
D03*
X1166750Y273000D02*
D03*
X1079250Y283000D02*
D03*
X1054250Y273000D02*
D03*
X985500Y283000D02*
D03*
X960500Y273000D02*
D03*
X910500Y283000D02*
D03*
X885500Y273000D02*
D03*
X835500Y283000D02*
D03*
X810500Y273000D02*
D03*
X760500Y283000D02*
D03*
X735500Y273000D02*
D03*
X685500Y283000D02*
D03*
X660500Y273000D02*
D03*
X610500Y283000D02*
D03*
X585500Y273000D02*
D03*
X535500Y283000D02*
D03*
X510500Y273000D02*
D03*
X460500Y283000D02*
D03*
X435500Y273000D02*
D03*
X385500Y283000D02*
D03*
X360500Y273000D02*
D03*
X310500Y283000D02*
D03*
X285500Y273000D02*
D03*
X235500Y283000D02*
D03*
X210500Y273000D02*
D03*
X160500Y283000D02*
D03*
X135500Y273000D02*
D03*
X66750Y283000D02*
D03*
X41750Y273000D02*
D03*
X1341750Y376750D02*
D03*
X1316750Y366750D02*
D03*
X1266750Y376750D02*
D03*
X1241750Y366750D02*
D03*
X1191750Y376750D02*
D03*
X1166750Y366750D02*
D03*
X1004250Y376750D02*
D03*
X979250Y366750D02*
D03*
X929250Y376750D02*
D03*
X904250Y366750D02*
D03*
X854250Y376750D02*
D03*
X829250Y366750D02*
D03*
X779250Y376750D02*
D03*
X754250Y366750D02*
D03*
X685500Y376750D02*
D03*
X660500Y366750D02*
D03*
X610500Y376750D02*
D03*
X585500Y366750D02*
D03*
X535500Y376750D02*
D03*
X510500Y366750D02*
D03*
X460500Y376750D02*
D03*
X435500Y366750D02*
D03*
X366750Y376750D02*
D03*
X341750Y366750D02*
D03*
X291750Y376750D02*
D03*
X266750Y366750D02*
D03*
X216750Y376750D02*
D03*
X191750Y366750D02*
D03*
X141750Y376750D02*
D03*
X116750Y366750D02*
D03*
X48000Y376750D02*
D03*
X23000Y366750D02*
D03*
D21*
X1311750Y38000D02*
D03*
X1351750D02*
D03*
X1199250D02*
D03*
X1239250D02*
D03*
X1068000D02*
D03*
X1108000D02*
D03*
X993000D02*
D03*
X1033000D02*
D03*
X918000D02*
D03*
X958000D02*
D03*
X833625D02*
D03*
X873625D02*
D03*
X749250D02*
D03*
X789250D02*
D03*
X674250D02*
D03*
X714250D02*
D03*
X552375D02*
D03*
X592375D02*
D03*
X364875D02*
D03*
X404875D02*
D03*
X214875D02*
D03*
X254875D02*
D03*
X121125D02*
D03*
X161125D02*
D03*
X27375D02*
D03*
X67375D02*
D03*
X1311750Y113000D02*
D03*
X1351750D02*
D03*
X1236750D02*
D03*
X1276750D02*
D03*
X1161750D02*
D03*
X1201750D02*
D03*
X1068000D02*
D03*
X1108000D02*
D03*
X993000D02*
D03*
X1033000D02*
D03*
X889875D02*
D03*
X929875D02*
D03*
X786750D02*
D03*
X826750D02*
D03*
X711750D02*
D03*
X751750D02*
D03*
X636750D02*
D03*
X676750D02*
D03*
X561750D02*
D03*
X601750D02*
D03*
X486750D02*
D03*
X526750D02*
D03*
X411750D02*
D03*
X451750D02*
D03*
X336750D02*
D03*
X376750D02*
D03*
X261750D02*
D03*
X301750D02*
D03*
X186750D02*
D03*
X226750D02*
D03*
X64875D02*
D03*
X104875D02*
D03*
X1311750Y188000D02*
D03*
X1351750D02*
D03*
X1236750D02*
D03*
X1276750D02*
D03*
X1161750D02*
D03*
X1201750D02*
D03*
X1021125D02*
D03*
X1061125D02*
D03*
X899250D02*
D03*
X939250D02*
D03*
X824250D02*
D03*
X864250D02*
D03*
X749250D02*
D03*
X789250D02*
D03*
X674250D02*
D03*
X714250D02*
D03*
X599250D02*
D03*
X639250D02*
D03*
X524250D02*
D03*
X564250D02*
D03*
X449250D02*
D03*
X489250D02*
D03*
X374250D02*
D03*
X414250D02*
D03*
X299250D02*
D03*
X339250D02*
D03*
X224250D02*
D03*
X264250D02*
D03*
X149250D02*
D03*
X189250D02*
D03*
X46125D02*
D03*
X86125D02*
D03*
X1311750Y263000D02*
D03*
X1351750D02*
D03*
X1236750D02*
D03*
X1276750D02*
D03*
X1161750D02*
D03*
X1201750D02*
D03*
X1049250D02*
D03*
X1089250D02*
D03*
X955500D02*
D03*
X995500D02*
D03*
X880500D02*
D03*
X920500D02*
D03*
X805500D02*
D03*
X845500D02*
D03*
X730500D02*
D03*
X770500D02*
D03*
X655500D02*
D03*
X695500D02*
D03*
X580500D02*
D03*
X620500D02*
D03*
X505500D02*
D03*
X545500D02*
D03*
X430500D02*
D03*
X470500D02*
D03*
X355500D02*
D03*
X395500D02*
D03*
X280500D02*
D03*
X320500D02*
D03*
X205500D02*
D03*
X245500D02*
D03*
X130500D02*
D03*
X170500D02*
D03*
X36750D02*
D03*
X76750D02*
D03*
X1311750Y356750D02*
D03*
X1351750D02*
D03*
X1236750D02*
D03*
X1276750D02*
D03*
X1161750D02*
D03*
X1201750D02*
D03*
X974250D02*
D03*
X1014250D02*
D03*
X899250D02*
D03*
X939250D02*
D03*
X824250D02*
D03*
X864250D02*
D03*
X749250D02*
D03*
X789250D02*
D03*
X655500D02*
D03*
X695500D02*
D03*
X580500D02*
D03*
X620500D02*
D03*
X505500D02*
D03*
X545500D02*
D03*
X430500D02*
D03*
X470500D02*
D03*
X336750D02*
D03*
X376750D02*
D03*
X261750D02*
D03*
X301750D02*
D03*
X186750D02*
D03*
X226750D02*
D03*
X111750D02*
D03*
X151750D02*
D03*
X18000D02*
D03*
X58000D02*
D03*
D22*
X1331750Y38000D02*
D03*
X1219250D02*
D03*
X1088000D02*
D03*
X1013000D02*
D03*
X938000D02*
D03*
X853625D02*
D03*
X769250D02*
D03*
X694250D02*
D03*
X572375D02*
D03*
X384875D02*
D03*
X234875D02*
D03*
X141125D02*
D03*
X47375D02*
D03*
X1331750Y113000D02*
D03*
X1256750D02*
D03*
X1181750D02*
D03*
X1088000D02*
D03*
X1013000D02*
D03*
X909875D02*
D03*
X806750D02*
D03*
X731750D02*
D03*
X656750D02*
D03*
X581750D02*
D03*
X506750D02*
D03*
X431750D02*
D03*
X356750D02*
D03*
X281750D02*
D03*
X206750D02*
D03*
X84875D02*
D03*
X1331750Y188000D02*
D03*
X1256750D02*
D03*
X1181750D02*
D03*
X1041125D02*
D03*
X919250D02*
D03*
X844250D02*
D03*
X769250D02*
D03*
X694250D02*
D03*
X619250D02*
D03*
X544250D02*
D03*
X469250D02*
D03*
X394250D02*
D03*
X319250D02*
D03*
X244250D02*
D03*
X169250D02*
D03*
X66125D02*
D03*
X1331750Y263000D02*
D03*
X1256750D02*
D03*
X1181750D02*
D03*
X1069250D02*
D03*
X975500D02*
D03*
X900500D02*
D03*
X825500D02*
D03*
X750500D02*
D03*
X675500D02*
D03*
X600500D02*
D03*
X525500D02*
D03*
X450500D02*
D03*
X375500D02*
D03*
X300500D02*
D03*
X225500D02*
D03*
X150500D02*
D03*
X56750D02*
D03*
X1331750Y356750D02*
D03*
X1256750D02*
D03*
X1181750D02*
D03*
X994250D02*
D03*
X919250D02*
D03*
X844250D02*
D03*
X769250D02*
D03*
X675500D02*
D03*
X600500D02*
D03*
X525500D02*
D03*
X450500D02*
D03*
X356750D02*
D03*
X281750D02*
D03*
X206750D02*
D03*
X131750D02*
D03*
X38000D02*
D03*
D23*
X1107500Y316000D02*
D03*
X1093750Y319750D02*
D03*
X1088000Y316000D02*
D03*
X472750D02*
D03*
X392250Y312500D02*
D03*
Y320000D02*
D03*
X186250Y343750D02*
D03*
X1311250Y250000D02*
D03*
X463500Y291750D02*
D03*
X505000Y250000D02*
D03*
X355000D02*
D03*
X36250D02*
D03*
X111250Y343750D02*
D03*
X261250D02*
D03*
X336250D02*
D03*
X430000D02*
D03*
X505000D02*
D03*
X580000D02*
D03*
X655000D02*
D03*
X748750D02*
D03*
X823750D02*
D03*
X898750D02*
D03*
X973750D02*
D03*
X1078250D02*
D03*
X1161250D02*
D03*
X1236250D02*
D03*
X1311250D02*
D03*
X17500D02*
D03*
X493250Y88000D02*
D03*
X488750Y62750D02*
D03*
X475500Y44500D02*
D03*
X468250Y38500D02*
D03*
X464153Y58931D02*
D03*
X472000Y59000D02*
D03*
X467000Y44500D02*
D03*
X471250D02*
D03*
X467000Y48750D02*
D03*
X475500D02*
D03*
X471250Y48768D02*
D03*
X467000Y53000D02*
D03*
X471250D02*
D03*
X475500D02*
D03*
X459250Y78018D02*
D03*
X455250D02*
D03*
X440750Y4750D02*
D03*
X437250Y23250D02*
D03*
X1074000Y319750D02*
D03*
X507250Y99000D02*
D03*
X500500Y59018D02*
D03*
Y44768D02*
D03*
X466500Y19518D02*
D03*
X470500D02*
D03*
X510250Y73768D02*
D03*
X472500Y8018D02*
D03*
X491000Y12518D02*
D03*
X442000Y44768D02*
D03*
X475250Y82268D02*
D03*
X471250D02*
D03*
X442000Y59018D02*
D03*
Y63018D02*
D03*
D24*
X423000Y304250D02*
D03*
D25*
X1303250Y48000D02*
D03*
X1355250Y58000D02*
D03*
X1190750Y48000D02*
D03*
X1242750Y58000D02*
D03*
X1059500Y48000D02*
D03*
X1111500Y58000D02*
D03*
X984500Y48000D02*
D03*
X1036500Y58000D02*
D03*
X909500Y48000D02*
D03*
X961500Y58000D02*
D03*
X825125Y48000D02*
D03*
X877125Y58000D02*
D03*
X740750Y48000D02*
D03*
X792750Y58000D02*
D03*
X665750Y48000D02*
D03*
X717750Y58000D02*
D03*
X543875Y48000D02*
D03*
X595875Y58000D02*
D03*
X356375Y48000D02*
D03*
X408375Y58000D02*
D03*
X206375Y48000D02*
D03*
X258375Y58000D02*
D03*
X112625Y48000D02*
D03*
X164625Y58000D02*
D03*
X18875Y48000D02*
D03*
X70875Y58000D02*
D03*
X1303250Y123000D02*
D03*
X1355250Y133000D02*
D03*
X1228250Y123000D02*
D03*
X1280250Y133000D02*
D03*
X1153250Y123000D02*
D03*
X1205250Y133000D02*
D03*
X1059500Y123000D02*
D03*
X1111500Y133000D02*
D03*
X984500Y123000D02*
D03*
X1036500Y133000D02*
D03*
X881375Y123000D02*
D03*
X933375Y133000D02*
D03*
X778250Y123000D02*
D03*
X830250Y133000D02*
D03*
X703250Y123000D02*
D03*
X755250Y133000D02*
D03*
X628250Y123000D02*
D03*
X680250Y133000D02*
D03*
X553250Y123000D02*
D03*
X605250Y133000D02*
D03*
X478250Y123000D02*
D03*
X530250Y133000D02*
D03*
X403250Y123000D02*
D03*
X455250Y133000D02*
D03*
X328250Y123000D02*
D03*
X380250Y133000D02*
D03*
X253250Y123000D02*
D03*
X305250Y133000D02*
D03*
X178250Y123000D02*
D03*
X230250Y133000D02*
D03*
X56375Y123000D02*
D03*
X108375Y133000D02*
D03*
X1303250Y198000D02*
D03*
X1355250Y208000D02*
D03*
X1228250Y198000D02*
D03*
X1280250Y208000D02*
D03*
X1153250Y198000D02*
D03*
X1205250Y208000D02*
D03*
X1012625Y198000D02*
D03*
X1064625Y208000D02*
D03*
X890750Y198000D02*
D03*
X942750Y208000D02*
D03*
X815750Y198000D02*
D03*
X867750Y208000D02*
D03*
X740750Y198000D02*
D03*
X792750Y208000D02*
D03*
X665750Y198000D02*
D03*
X717750Y208000D02*
D03*
X590750Y198000D02*
D03*
X642750Y208000D02*
D03*
X515750Y198000D02*
D03*
X567750Y208000D02*
D03*
X440750Y198000D02*
D03*
X492750Y208000D02*
D03*
X365750Y198000D02*
D03*
X417750Y208000D02*
D03*
X290750Y198000D02*
D03*
X342750Y208000D02*
D03*
X215750Y198000D02*
D03*
X267750Y208000D02*
D03*
X140750Y198000D02*
D03*
X192750Y208000D02*
D03*
X37625Y198000D02*
D03*
X89625Y208000D02*
D03*
X1303250Y273000D02*
D03*
X1355250Y283000D02*
D03*
X1228250Y273000D02*
D03*
X1280250Y283000D02*
D03*
X1153250Y273000D02*
D03*
X1205250Y283000D02*
D03*
X1040750Y273000D02*
D03*
X1092750Y283000D02*
D03*
X947000Y273000D02*
D03*
X999000Y283000D02*
D03*
X872000Y273000D02*
D03*
X924000Y283000D02*
D03*
X797000Y273000D02*
D03*
X849000Y283000D02*
D03*
X722000Y273000D02*
D03*
X774000Y283000D02*
D03*
X647000Y273000D02*
D03*
X699000Y283000D02*
D03*
X572000Y273000D02*
D03*
X624000Y283000D02*
D03*
X497000Y273000D02*
D03*
X549000Y283000D02*
D03*
X422000Y273000D02*
D03*
X474000Y283000D02*
D03*
X347000Y273000D02*
D03*
X399000Y283000D02*
D03*
X272000Y273000D02*
D03*
X324000Y283000D02*
D03*
X197000Y273000D02*
D03*
X249000Y283000D02*
D03*
X122000Y273000D02*
D03*
X174000Y283000D02*
D03*
X28250Y273000D02*
D03*
X80250Y283000D02*
D03*
X1303250Y366750D02*
D03*
X1355250Y376750D02*
D03*
X1228250Y366750D02*
D03*
X1280250Y376750D02*
D03*
X1153250Y366750D02*
D03*
X1205250Y376750D02*
D03*
X965750Y366750D02*
D03*
X1017750Y376750D02*
D03*
X890750Y366750D02*
D03*
X942750Y376750D02*
D03*
X815750Y366750D02*
D03*
X867750Y376750D02*
D03*
X740750Y366750D02*
D03*
X792750Y376750D02*
D03*
X647000Y366750D02*
D03*
X699000Y376750D02*
D03*
X572000Y366750D02*
D03*
X624000Y376750D02*
D03*
X497000Y366750D02*
D03*
X549000Y376750D02*
D03*
X422000Y366750D02*
D03*
X474000Y376750D02*
D03*
X328250Y366750D02*
D03*
X380250Y376750D02*
D03*
X253250Y366750D02*
D03*
X305250Y376750D02*
D03*
X178250Y366750D02*
D03*
X230250Y376750D02*
D03*
X103250Y366750D02*
D03*
X155250Y376750D02*
D03*
X9500Y366750D02*
D03*
X61500Y376750D02*
D03*
D26*
X446264Y31000D02*
D03*
X441736D02*
D03*
X498986Y99018D02*
D03*
X503514D02*
D03*
Y94268D02*
D03*
X498986D02*
D03*
X441764Y26250D02*
D03*
X437236D02*
D03*
D27*
X454201Y101250D02*
D03*
X441799Y101250D02*
D03*
X417951Y176250D02*
D03*
X405549Y176250D02*
D03*
X399201Y251250D02*
D03*
X386799Y251250D02*
D03*
X173299Y251250D02*
D03*
X185701Y251250D02*
D03*
X60799Y345000D02*
D03*
X73201Y345000D02*
D03*
X1118799Y345000D02*
D03*
X1131201Y345000D02*
D03*
X166951D02*
D03*
X154549Y345000D02*
D03*
X1010701Y251250D02*
D03*
X998299Y251250D02*
D03*
X1104451Y251250D02*
D03*
X1092049Y251250D02*
D03*
X1216951Y251250D02*
D03*
X1204549Y251250D02*
D03*
X635701Y345000D02*
D03*
X623299Y345000D02*
D03*
X560701Y345000D02*
D03*
X548299Y345000D02*
D03*
X485701Y345000D02*
D03*
X473299Y345000D02*
D03*
X391951Y345000D02*
D03*
X379549Y345000D02*
D03*
X316951Y345000D02*
D03*
X304549Y345000D02*
D03*
X241951Y345000D02*
D03*
X229549Y345000D02*
D03*
X1048201Y101250D02*
D03*
X1035799Y101250D02*
D03*
X945201Y101250D02*
D03*
X932799Y101250D02*
D03*
X841951Y101250D02*
D03*
X829549Y101250D02*
D03*
X691951Y101250D02*
D03*
X679549Y101250D02*
D03*
X766951Y101250D02*
D03*
X754549Y101250D02*
D03*
X1365201Y345000D02*
D03*
X1352799Y345000D02*
D03*
X616951Y101250D02*
D03*
X604549Y101250D02*
D03*
X541951Y101250D02*
D03*
X529549Y101250D02*
D03*
X1291951Y345000D02*
D03*
X1279549Y345000D02*
D03*
X1216951Y345000D02*
D03*
X1204549Y345000D02*
D03*
X391951Y101250D02*
D03*
X379549Y101250D02*
D03*
X1029451Y345000D02*
D03*
X1017049Y345000D02*
D03*
X954451Y345000D02*
D03*
X942049Y345000D02*
D03*
X260701Y251250D02*
D03*
X248299Y251250D02*
D03*
X335701Y251250D02*
D03*
X323299Y251250D02*
D03*
X485701Y251250D02*
D03*
X473299Y251250D02*
D03*
X560701Y251250D02*
D03*
X548299Y251250D02*
D03*
X785701Y251250D02*
D03*
X773299Y251250D02*
D03*
X860701Y251250D02*
D03*
X848299Y251250D02*
D03*
X635701Y251250D02*
D03*
X623299Y251250D02*
D03*
X710701Y251250D02*
D03*
X698299Y251250D02*
D03*
X654451Y176250D02*
D03*
X642049Y176250D02*
D03*
X579451Y176250D02*
D03*
X567049Y176250D02*
D03*
X504451Y176250D02*
D03*
X492049Y176250D02*
D03*
X1076402Y176250D02*
D03*
X1064000Y176250D02*
D03*
X954451Y176250D02*
D03*
X942049Y176250D02*
D03*
X879451Y176250D02*
D03*
X867049Y176250D02*
D03*
X804451Y176250D02*
D03*
X792049Y176250D02*
D03*
X729451Y176250D02*
D03*
X717049Y176250D02*
D03*
X1365201Y176250D02*
D03*
X1352799Y176250D02*
D03*
X1216951Y176250D02*
D03*
X1204549Y176250D02*
D03*
X1291951Y176250D02*
D03*
X1279549Y176250D02*
D03*
X804451Y26250D02*
D03*
X792049Y26250D02*
D03*
X729451Y26250D02*
D03*
X717049Y26250D02*
D03*
X607701Y26250D02*
D03*
X595299Y26250D02*
D03*
X419951Y26250D02*
D03*
X407549Y26250D02*
D03*
X270201Y26250D02*
D03*
X257799Y26250D02*
D03*
X91951Y251250D02*
D03*
X79549Y251250D02*
D03*
X1365201Y26250D02*
D03*
X1352799Y26250D02*
D03*
X1254451Y26250D02*
D03*
X1242049Y26250D02*
D03*
X1123201Y26250D02*
D03*
X1110799Y26250D02*
D03*
X101297Y176250D02*
D03*
X88895Y176250D02*
D03*
X204451Y176250D02*
D03*
X192049Y176250D02*
D03*
X279451Y176250D02*
D03*
X267049Y176250D02*
D03*
X354451Y176250D02*
D03*
X342049Y176250D02*
D03*
X1365201Y101250D02*
D03*
X1352799Y101250D02*
D03*
X1216951Y101250D02*
D03*
X1204549Y101250D02*
D03*
X1291951Y101250D02*
D03*
X1279549Y101250D02*
D03*
X1123201Y101250D02*
D03*
X1110799Y101250D02*
D03*
X1048201Y26250D02*
D03*
X1035799Y26250D02*
D03*
X973201Y26250D02*
D03*
X960799Y26250D02*
D03*
X888951Y26250D02*
D03*
X876549Y26250D02*
D03*
X935701Y251250D02*
D03*
X923299Y251250D02*
D03*
X176451Y26250D02*
D03*
X164049Y26250D02*
D03*
X82701Y26250D02*
D03*
X70299Y26250D02*
D03*
X879451Y345000D02*
D03*
X867049Y345000D02*
D03*
X804451Y345000D02*
D03*
X792049Y345000D02*
D03*
X710701Y345000D02*
D03*
X698299Y345000D02*
D03*
X1291951Y251250D02*
D03*
X1279549Y251250D02*
D03*
X1365201Y251250D02*
D03*
X1352799Y251250D02*
D03*
X120201Y101250D02*
D03*
X107799Y101250D02*
D03*
X316951Y101250D02*
D03*
X304549Y101250D02*
D03*
X241951Y101250D02*
D03*
X229549Y101250D02*
D03*
D28*
X484784Y59003D02*
D03*
Y57428D02*
D03*
Y55853D02*
D03*
Y54279D02*
D03*
Y52704D02*
D03*
Y51129D02*
D03*
Y49554D02*
D03*
Y47980D02*
D03*
Y46405D02*
D03*
Y44830D02*
D03*
Y43255D02*
D03*
Y41680D02*
D03*
Y40106D02*
D03*
Y38531D02*
D03*
X457717D02*
D03*
Y40106D02*
D03*
Y41680D02*
D03*
Y43255D02*
D03*
Y44830D02*
D03*
Y46405D02*
D03*
Y47980D02*
D03*
Y49554D02*
D03*
Y51129D02*
D03*
Y52704D02*
D03*
Y54279D02*
D03*
Y55853D02*
D03*
Y57428D02*
D03*
Y59003D02*
D03*
D29*
X481489Y35234D02*
D03*
X479914D02*
D03*
X478339D02*
D03*
X476764D02*
D03*
X475189D02*
D03*
X473615D02*
D03*
X472040D02*
D03*
X470465D02*
D03*
X468890D02*
D03*
X467315D02*
D03*
X465740D02*
D03*
X464166D02*
D03*
X462591D02*
D03*
X461016D02*
D03*
Y62301D02*
D03*
X462591D02*
D03*
X464166D02*
D03*
X465740D02*
D03*
X467315D02*
D03*
X468890D02*
D03*
X470465D02*
D03*
X472040D02*
D03*
X473615D02*
D03*
X475189D02*
D03*
X476764D02*
D03*
X478339D02*
D03*
X479914D02*
D03*
X481489D02*
D03*
D30*
X471250Y48768D02*
D03*
D31*
X432000Y4750D02*
D03*
X440750D02*
D03*
X449500D02*
D03*
D32*
X1074000Y313018D02*
D03*
Y316482D02*
D03*
X1093750Y313018D02*
D03*
Y316482D02*
D03*
X487250Y94285D02*
D03*
Y97750D02*
D03*
X494250Y8535D02*
D03*
Y12000D02*
D03*
X469250Y12000D02*
D03*
Y8535D02*
D03*
X466500Y26250D02*
D03*
Y22785D02*
D03*
X475250Y75535D02*
D03*
Y79000D02*
D03*
X470500Y26250D02*
D03*
Y22785D02*
D03*
X471250Y75535D02*
D03*
Y79000D02*
D03*
X455250Y71285D02*
D03*
Y74750D02*
D03*
X459250Y71285D02*
D03*
Y74750D02*
D03*
D33*
X1082000Y312986D02*
D03*
Y317514D02*
D03*
X1101750Y312986D02*
D03*
Y317514D02*
D03*
X474500Y22254D02*
D03*
Y26781D02*
D03*
X467250Y70754D02*
D03*
Y75282D02*
D03*
X463250Y70754D02*
D03*
Y75282D02*
D03*
X1097750Y312986D02*
D03*
Y317514D02*
D03*
X1078000Y312986D02*
D03*
Y317514D02*
D03*
D34*
X487274Y88018D02*
D03*
Y83018D02*
D03*
Y78018D02*
D03*
Y73018D02*
D03*
X515226D02*
D03*
Y78018D02*
D03*
Y83018D02*
D03*
Y88018D02*
D03*
D35*
X486081Y6921D02*
D03*
Y13614D02*
D03*
X477419Y6921D02*
D03*
Y13614D02*
D03*
D36*
X448732Y59018D02*
D03*
X445268D02*
D03*
X448732Y44768D02*
D03*
X445268D02*
D03*
X493768Y59018D02*
D03*
X497232D02*
D03*
X493768Y44768D02*
D03*
X497232D02*
D03*
X448732Y63018D02*
D03*
X445268D02*
D03*
D37*
X443905Y321213D02*
D03*
Y299165D02*
D03*
D38*
X428650Y316094D02*
D03*
Y312158D02*
D03*
Y308221D02*
D03*
Y304283D02*
D03*
D39*
X353844Y316094D02*
X428650D01*
X337500Y299750D02*
X353844Y316094D01*
X337500Y264062D02*
Y299750D01*
X356500Y187000D02*
Y245062D01*
X337500Y264062D02*
X356500Y245062D01*
X391500Y112750D02*
X432000Y72250D01*
X444198D01*
X356500Y187000D02*
X391500Y152000D01*
Y112750D02*
Y152000D01*
D40*
X408677Y249823D02*
Y303069D01*
Y249823D02*
X427675Y230825D01*
X411258Y250892D02*
Y302000D01*
X418177Y308919D01*
X408677Y303069D02*
X417108Y311500D01*
X411258Y250892D02*
X430256Y231894D01*
X418177Y308919D02*
X426081D01*
X417108Y311500D02*
X426122D01*
X429000Y178750D02*
X465419Y142331D01*
X463959Y76286D02*
Y109872D01*
X465419Y111331D01*
Y142331D01*
X466541Y76286D02*
Y108803D01*
X468000Y110262D01*
Y143401D01*
X430256Y181144D02*
X468000Y143401D01*
X430256Y181144D02*
Y231894D01*
X427675Y180075D02*
Y230825D01*
X426122Y311500D02*
X426780Y312158D01*
X428650D01*
X426780Y308221D02*
X428650D01*
X426081Y308919D02*
X426780Y308221D01*
X427675Y180075D02*
X429000Y178750D01*
X467250Y75282D02*
Y75577D01*
X463250Y75282D02*
Y75577D01*
X466541Y76286D02*
X467250Y75577D01*
X463250D02*
X463959Y76286D01*
M02*
