G04*
G04 #@! TF.GenerationSoftware,Altium Limited,Altium Designer,22.5.1 (42)*
G04*
G04 Layer_Color=6684672*
%FSLAX25Y25*%
%MOIN*%
G70*
G04*
G04 #@! TF.SameCoordinates,504ED2BA-0697-4506-BE62-B3443A79F7BE*
G04*
G04*
G04 #@! TF.FilePolarity,Negative*
G04*
G01*
G75*
%ADD11C,0.00787*%
%ADD13C,0.06496*%
%ADD14C,0.03941*%
%ADD15C,0.08441*%
G04:AMPARAMS|DCode=16|XSize=102.36mil|YSize=185.04mil|CornerRadius=51.18mil|HoleSize=0mil|Usage=FLASHONLY|Rotation=0.000|XOffset=0mil|YOffset=0mil|HoleType=Round|Shape=RoundedRectangle|*
%AMROUNDEDRECTD16*
21,1,0.10236,0.08268,0,0,0.0*
21,1,0.00000,0.18504,0,0,0.0*
1,1,0.10236,0.00000,-0.04134*
1,1,0.10236,0.00000,-0.04134*
1,1,0.10236,0.00000,0.04134*
1,1,0.10236,0.00000,0.04134*
%
%ADD16ROUNDEDRECTD16*%
%ADD17C,0.06102*%
%ADD18R,0.06102X0.06102*%
%ADD41R,0.10630X0.10433*%
%ADD42R,0.03543X0.02953*%
%ADD43R,0.04134X0.04331*%
%ADD44O,0.04035X0.01378*%
%ADD45O,0.01378X0.04035*%
%ADD46R,0.13189X0.13189*%
%ADD47R,0.06591X0.06591*%
%ADD48R,0.03110X0.02953*%
%ADD49R,0.02953X0.03543*%
%ADD50R,0.06890X0.03150*%
%ADD51R,0.06102X0.05315*%
%ADD52R,0.02953X0.03110*%
%ADD53R,0.07677X0.05315*%
%ADD54R,0.06693X0.02953*%
D11*
X1364503Y395144D02*
X1364500D01*
X1370144Y389503D02*
X1370058Y390482D01*
X1369803Y391432D01*
X1369387Y392323D01*
X1368823Y393128D01*
X1368128Y393823D01*
X1367323Y394387D01*
X1366432Y394803D01*
X1365482Y395058D01*
X1364503Y395144D01*
X1370144Y389500D02*
Y389503D01*
X1364503Y395144D02*
X1364500Y395144D01*
X1370144Y389500D02*
X1370144Y389503D01*
Y5250D02*
Y5250D01*
Y5247D02*
X1370144Y5250D01*
X1370144Y5247D02*
Y5250D01*
X1364500Y-394D02*
X1365480Y-308D01*
X1366430Y-54D01*
X1367321Y362D01*
X1368127Y926D01*
X1368822Y1621D01*
X1369387Y2426D01*
X1369803Y3318D01*
X1370058Y4267D01*
X1370144Y5247D01*
X5250Y395144D02*
X5250D01*
X5250Y395144D02*
X5247Y395144D01*
X4267Y395058D01*
X3318Y394803D01*
X2426Y394387D01*
X1621Y393822D01*
X926Y393127D01*
X362Y392321D01*
X-54Y391430D01*
X-308Y390480D01*
X-394Y389500D01*
X5250Y395144D02*
X5247D01*
X-394Y5000D02*
X-290Y3948D01*
X17Y2936D01*
X515Y2003D01*
X1186Y1186D01*
X2003Y515D01*
X2936Y17D01*
X3948Y-290D01*
X5000Y-394D01*
X5250Y395144D02*
X1364500D01*
X1370144Y5250D02*
Y389500D01*
X-394Y5000D02*
X-394Y389500D01*
X5000Y-394D02*
X1364500D01*
X5000D02*
X5000D01*
X5000D02*
X5000D01*
D13*
X1316750Y48000D02*
D03*
X1341750Y58000D02*
D03*
X1204250Y48000D02*
D03*
X1229250Y58000D02*
D03*
X1073000Y48000D02*
D03*
X1098000Y58000D02*
D03*
X998000Y48000D02*
D03*
X1023000Y58000D02*
D03*
X923000Y48000D02*
D03*
X948000Y58000D02*
D03*
X838625Y48000D02*
D03*
X863625Y58000D02*
D03*
X754250Y48000D02*
D03*
X779250Y58000D02*
D03*
X679250Y48000D02*
D03*
X704250Y58000D02*
D03*
X557375Y48000D02*
D03*
X582375Y58000D02*
D03*
X369875Y48000D02*
D03*
X394875Y58000D02*
D03*
X219875Y48000D02*
D03*
X244875Y58000D02*
D03*
X126125Y48000D02*
D03*
X151125Y58000D02*
D03*
X32375Y48000D02*
D03*
X57375Y58000D02*
D03*
X1316750Y123000D02*
D03*
X1341750Y133000D02*
D03*
X1241750Y123000D02*
D03*
X1266750Y133000D02*
D03*
X1166750Y123000D02*
D03*
X1191750Y133000D02*
D03*
X1073000Y123000D02*
D03*
X1098000Y133000D02*
D03*
X998000Y123000D02*
D03*
X1023000Y133000D02*
D03*
X894875Y123000D02*
D03*
X919875Y133000D02*
D03*
X791750Y123000D02*
D03*
X816750Y133000D02*
D03*
X716750Y123000D02*
D03*
X741750Y133000D02*
D03*
X641750Y123000D02*
D03*
X666750Y133000D02*
D03*
X566750Y123000D02*
D03*
X591750Y133000D02*
D03*
X491750Y123000D02*
D03*
X516750Y133000D02*
D03*
X416750Y123000D02*
D03*
X441750Y133000D02*
D03*
X341750Y123000D02*
D03*
X366750Y133000D02*
D03*
X266750Y123000D02*
D03*
X291750Y133000D02*
D03*
X191750Y123000D02*
D03*
X216750Y133000D02*
D03*
X69875Y123000D02*
D03*
X94875Y133000D02*
D03*
X1316750Y198000D02*
D03*
X1341750Y208000D02*
D03*
X1241750Y198000D02*
D03*
X1266750Y208000D02*
D03*
X1166750Y198000D02*
D03*
X1191750Y208000D02*
D03*
X1026125Y198000D02*
D03*
X1051125Y208000D02*
D03*
X904250Y198000D02*
D03*
X929250Y208000D02*
D03*
X829250Y198000D02*
D03*
X854250Y208000D02*
D03*
X754250Y198000D02*
D03*
X779250Y208000D02*
D03*
X679250Y198000D02*
D03*
X704250Y208000D02*
D03*
X604250Y198000D02*
D03*
X629250Y208000D02*
D03*
X529250Y198000D02*
D03*
X554250Y208000D02*
D03*
X454250Y198000D02*
D03*
X479250Y208000D02*
D03*
X379250Y198000D02*
D03*
X404250Y208000D02*
D03*
X304250Y198000D02*
D03*
X329250Y208000D02*
D03*
X229250Y198000D02*
D03*
X254250Y208000D02*
D03*
X154250Y198000D02*
D03*
X179250Y208000D02*
D03*
X51125Y198000D02*
D03*
X76125Y208000D02*
D03*
X1316750Y273000D02*
D03*
X1341750Y283000D02*
D03*
X1241750Y273000D02*
D03*
X1266750Y283000D02*
D03*
X1166750Y273000D02*
D03*
X1191750Y283000D02*
D03*
X1054250Y273000D02*
D03*
X1079250Y283000D02*
D03*
X960500Y273000D02*
D03*
X985500Y283000D02*
D03*
X885500Y273000D02*
D03*
X910500Y283000D02*
D03*
X810500Y273000D02*
D03*
X835500Y283000D02*
D03*
X735500Y273000D02*
D03*
X760500Y283000D02*
D03*
X660500Y273000D02*
D03*
X685500Y283000D02*
D03*
X585500Y273000D02*
D03*
X610500Y283000D02*
D03*
X510500Y273000D02*
D03*
X535500Y283000D02*
D03*
X435500Y273000D02*
D03*
X460500Y283000D02*
D03*
X360500Y273000D02*
D03*
X385500Y283000D02*
D03*
X285500Y273000D02*
D03*
X310500Y283000D02*
D03*
X210500Y273000D02*
D03*
X235500Y283000D02*
D03*
X135500Y273000D02*
D03*
X160500Y283000D02*
D03*
X41750Y273000D02*
D03*
X66750Y283000D02*
D03*
X1316750Y366750D02*
D03*
X1341750Y376750D02*
D03*
X1241750Y366750D02*
D03*
X1266750Y376750D02*
D03*
X1166750Y366750D02*
D03*
X1191750Y376750D02*
D03*
X979250Y366750D02*
D03*
X1004250Y376750D02*
D03*
X904250Y366750D02*
D03*
X929250Y376750D02*
D03*
X829250Y366750D02*
D03*
X854250Y376750D02*
D03*
X754250Y366750D02*
D03*
X779250Y376750D02*
D03*
X660500Y366750D02*
D03*
X685500Y376750D02*
D03*
X585500Y366750D02*
D03*
X610500Y376750D02*
D03*
X510500Y366750D02*
D03*
X535500Y376750D02*
D03*
X435500Y366750D02*
D03*
X460500Y376750D02*
D03*
X341750Y366750D02*
D03*
X366750Y376750D02*
D03*
X266750Y366750D02*
D03*
X291750Y376750D02*
D03*
X191750Y366750D02*
D03*
X216750Y376750D02*
D03*
X116750Y366750D02*
D03*
X141750Y376750D02*
D03*
X23000Y366750D02*
D03*
X48000Y376750D02*
D03*
D14*
X1351750Y38000D02*
D03*
X1311750D02*
D03*
X1239250D02*
D03*
X1199250D02*
D03*
X1108000D02*
D03*
X1068000D02*
D03*
X1033000D02*
D03*
X993000D02*
D03*
X958000D02*
D03*
X918000D02*
D03*
X873625D02*
D03*
X833625D02*
D03*
X789250D02*
D03*
X749250D02*
D03*
X714250D02*
D03*
X674250D02*
D03*
X592375D02*
D03*
X552375D02*
D03*
X404875D02*
D03*
X364875D02*
D03*
X254875D02*
D03*
X214875D02*
D03*
X161125D02*
D03*
X121125D02*
D03*
X67375D02*
D03*
X27375D02*
D03*
X1351750Y113000D02*
D03*
X1311750D02*
D03*
X1276750D02*
D03*
X1236750D02*
D03*
X1201750D02*
D03*
X1161750D02*
D03*
X1108000D02*
D03*
X1068000D02*
D03*
X1033000D02*
D03*
X993000D02*
D03*
X929875D02*
D03*
X889875D02*
D03*
X826750D02*
D03*
X786750D02*
D03*
X751750D02*
D03*
X711750D02*
D03*
X676750D02*
D03*
X636750D02*
D03*
X601750D02*
D03*
X561750D02*
D03*
X526750D02*
D03*
X486750D02*
D03*
X451750D02*
D03*
X411750D02*
D03*
X376750D02*
D03*
X336750D02*
D03*
X301750D02*
D03*
X261750D02*
D03*
X226750D02*
D03*
X186750D02*
D03*
X104875D02*
D03*
X64875D02*
D03*
X1351750Y188000D02*
D03*
X1311750D02*
D03*
X1276750D02*
D03*
X1236750D02*
D03*
X1201750D02*
D03*
X1161750D02*
D03*
X1061125D02*
D03*
X1021125D02*
D03*
X939250D02*
D03*
X899250D02*
D03*
X864250D02*
D03*
X824250D02*
D03*
X789250D02*
D03*
X749250D02*
D03*
X714250D02*
D03*
X674250D02*
D03*
X639250D02*
D03*
X599250D02*
D03*
X564250D02*
D03*
X524250D02*
D03*
X489250D02*
D03*
X449250D02*
D03*
X414250D02*
D03*
X374250D02*
D03*
X339250D02*
D03*
X299250D02*
D03*
X264250D02*
D03*
X224250D02*
D03*
X189250D02*
D03*
X149250D02*
D03*
X86125D02*
D03*
X46125D02*
D03*
X1351750Y263000D02*
D03*
X1311750D02*
D03*
X1276750D02*
D03*
X1236750D02*
D03*
X1201750D02*
D03*
X1161750D02*
D03*
X1089250D02*
D03*
X1049250D02*
D03*
X995500D02*
D03*
X955500D02*
D03*
X920500D02*
D03*
X880500D02*
D03*
X845500D02*
D03*
X805500D02*
D03*
X770500D02*
D03*
X730500D02*
D03*
X695500D02*
D03*
X655500D02*
D03*
X620500D02*
D03*
X580500D02*
D03*
X545500D02*
D03*
X505500D02*
D03*
X470500D02*
D03*
X430500D02*
D03*
X395500D02*
D03*
X355500D02*
D03*
X320500D02*
D03*
X280500D02*
D03*
X245500D02*
D03*
X205500D02*
D03*
X170500D02*
D03*
X130500D02*
D03*
X76750D02*
D03*
X36750D02*
D03*
X1351750Y356750D02*
D03*
X1311750D02*
D03*
X1276750D02*
D03*
X1236750D02*
D03*
X1201750D02*
D03*
X1161750D02*
D03*
X1014250D02*
D03*
X974250D02*
D03*
X939250D02*
D03*
X899250D02*
D03*
X864250D02*
D03*
X824250D02*
D03*
X789250D02*
D03*
X749250D02*
D03*
X695500D02*
D03*
X655500D02*
D03*
X620500D02*
D03*
X580500D02*
D03*
X545500D02*
D03*
X505500D02*
D03*
X470500D02*
D03*
X430500D02*
D03*
X376750D02*
D03*
X336750D02*
D03*
X301750D02*
D03*
X261750D02*
D03*
X226750D02*
D03*
X186750D02*
D03*
X151750D02*
D03*
X111750D02*
D03*
X58000D02*
D03*
X18000D02*
D03*
D15*
X1331750Y38000D02*
D03*
X1219250D02*
D03*
X1088000D02*
D03*
X1013000D02*
D03*
X938000D02*
D03*
X853625D02*
D03*
X769250D02*
D03*
X694250D02*
D03*
X572375D02*
D03*
X384875D02*
D03*
X234875D02*
D03*
X141125D02*
D03*
X47375D02*
D03*
X1331750Y113000D02*
D03*
X1256750D02*
D03*
X1181750D02*
D03*
X1088000D02*
D03*
X1013000D02*
D03*
X909875D02*
D03*
X806750D02*
D03*
X731750D02*
D03*
X656750D02*
D03*
X581750D02*
D03*
X506750D02*
D03*
X431750D02*
D03*
X356750D02*
D03*
X281750D02*
D03*
X206750D02*
D03*
X84875D02*
D03*
X1331750Y188000D02*
D03*
X1256750D02*
D03*
X1181750D02*
D03*
X1041125D02*
D03*
X919250D02*
D03*
X844250D02*
D03*
X769250D02*
D03*
X694250D02*
D03*
X619250D02*
D03*
X544250D02*
D03*
X469250D02*
D03*
X394250D02*
D03*
X319250D02*
D03*
X244250D02*
D03*
X169250D02*
D03*
X66125D02*
D03*
X1331750Y263000D02*
D03*
X1256750D02*
D03*
X1181750D02*
D03*
X1069250D02*
D03*
X975500D02*
D03*
X900500D02*
D03*
X825500D02*
D03*
X750500D02*
D03*
X675500D02*
D03*
X600500D02*
D03*
X525500D02*
D03*
X450500D02*
D03*
X375500D02*
D03*
X300500D02*
D03*
X225500D02*
D03*
X150500D02*
D03*
X56750D02*
D03*
X1331750Y356750D02*
D03*
X1256750D02*
D03*
X1181750D02*
D03*
X994250D02*
D03*
X919250D02*
D03*
X844250D02*
D03*
X769250D02*
D03*
X675500D02*
D03*
X600500D02*
D03*
X525500D02*
D03*
X450500D02*
D03*
X356750D02*
D03*
X281750D02*
D03*
X206750D02*
D03*
X131750D02*
D03*
X38000D02*
D03*
D16*
X1110047D02*
D03*
X1065953D02*
D03*
D17*
X1097843Y327222D02*
D03*
X1088000D02*
D03*
X1097843Y384309D02*
D03*
X1078158D02*
D03*
D18*
Y327222D02*
D03*
D41*
X1355250Y58000D02*
D03*
X1303250Y48000D02*
D03*
X1242750Y58000D02*
D03*
X1190750Y48000D02*
D03*
X1111500Y58000D02*
D03*
X1059500Y48000D02*
D03*
X1036500Y58000D02*
D03*
X984500Y48000D02*
D03*
X961500Y58000D02*
D03*
X909500Y48000D02*
D03*
X877125Y58000D02*
D03*
X825125Y48000D02*
D03*
X792750Y58000D02*
D03*
X740750Y48000D02*
D03*
X717750Y58000D02*
D03*
X665750Y48000D02*
D03*
X595875Y58000D02*
D03*
X543875Y48000D02*
D03*
X408375Y58000D02*
D03*
X356375Y48000D02*
D03*
X258375Y58000D02*
D03*
X206375Y48000D02*
D03*
X164625Y58000D02*
D03*
X112625Y48000D02*
D03*
X70875Y58000D02*
D03*
X18875Y48000D02*
D03*
X1355250Y133000D02*
D03*
X1303250Y123000D02*
D03*
X1280250Y133000D02*
D03*
X1228250Y123000D02*
D03*
X1205250Y133000D02*
D03*
X1153250Y123000D02*
D03*
X1111500Y133000D02*
D03*
X1059500Y123000D02*
D03*
X1036500Y133000D02*
D03*
X984500Y123000D02*
D03*
X933375Y133000D02*
D03*
X881375Y123000D02*
D03*
X830250Y133000D02*
D03*
X778250Y123000D02*
D03*
X755250Y133000D02*
D03*
X703250Y123000D02*
D03*
X680250Y133000D02*
D03*
X628250Y123000D02*
D03*
X605250Y133000D02*
D03*
X553250Y123000D02*
D03*
X530250Y133000D02*
D03*
X478250Y123000D02*
D03*
X455250Y133000D02*
D03*
X403250Y123000D02*
D03*
X380250Y133000D02*
D03*
X328250Y123000D02*
D03*
X305250Y133000D02*
D03*
X253250Y123000D02*
D03*
X230250Y133000D02*
D03*
X178250Y123000D02*
D03*
X108375Y133000D02*
D03*
X56375Y123000D02*
D03*
X1355250Y208000D02*
D03*
X1303250Y198000D02*
D03*
X1280250Y208000D02*
D03*
X1228250Y198000D02*
D03*
X1205250Y208000D02*
D03*
X1153250Y198000D02*
D03*
X1064625Y208000D02*
D03*
X1012625Y198000D02*
D03*
X942750Y208000D02*
D03*
X890750Y198000D02*
D03*
X867750Y208000D02*
D03*
X815750Y198000D02*
D03*
X792750Y208000D02*
D03*
X740750Y198000D02*
D03*
X717750Y208000D02*
D03*
X665750Y198000D02*
D03*
X642750Y208000D02*
D03*
X590750Y198000D02*
D03*
X567750Y208000D02*
D03*
X515750Y198000D02*
D03*
X492750Y208000D02*
D03*
X440750Y198000D02*
D03*
X417750Y208000D02*
D03*
X365750Y198000D02*
D03*
X342750Y208000D02*
D03*
X290750Y198000D02*
D03*
X267750Y208000D02*
D03*
X215750Y198000D02*
D03*
X192750Y208000D02*
D03*
X140750Y198000D02*
D03*
X89625Y208000D02*
D03*
X37625Y198000D02*
D03*
X1355250Y283000D02*
D03*
X1303250Y273000D02*
D03*
X1280250Y283000D02*
D03*
X1228250Y273000D02*
D03*
X1205250Y283000D02*
D03*
X1153250Y273000D02*
D03*
X1092750Y283000D02*
D03*
X1040750Y273000D02*
D03*
X999000Y283000D02*
D03*
X947000Y273000D02*
D03*
X924000Y283000D02*
D03*
X872000Y273000D02*
D03*
X849000Y283000D02*
D03*
X797000Y273000D02*
D03*
X774000Y283000D02*
D03*
X722000Y273000D02*
D03*
X699000Y283000D02*
D03*
X647000Y273000D02*
D03*
X624000Y283000D02*
D03*
X572000Y273000D02*
D03*
X549000Y283000D02*
D03*
X497000Y273000D02*
D03*
X474000Y283000D02*
D03*
X422000Y273000D02*
D03*
X399000Y283000D02*
D03*
X347000Y273000D02*
D03*
X324000Y283000D02*
D03*
X272000Y273000D02*
D03*
X249000Y283000D02*
D03*
X197000Y273000D02*
D03*
X174000Y283000D02*
D03*
X122000Y273000D02*
D03*
X80250Y283000D02*
D03*
X28250Y273000D02*
D03*
X1355250Y376750D02*
D03*
X1303250Y366750D02*
D03*
X1280250Y376750D02*
D03*
X1228250Y366750D02*
D03*
X1205250Y376750D02*
D03*
X1153250Y366750D02*
D03*
X1017750Y376750D02*
D03*
X965750Y366750D02*
D03*
X942750Y376750D02*
D03*
X890750Y366750D02*
D03*
X867750Y376750D02*
D03*
X815750Y366750D02*
D03*
X792750Y376750D02*
D03*
X740750Y366750D02*
D03*
X699000Y376750D02*
D03*
X647000Y366750D02*
D03*
X624000Y376750D02*
D03*
X572000Y366750D02*
D03*
X549000Y376750D02*
D03*
X497000Y366750D02*
D03*
X474000Y376750D02*
D03*
X422000Y366750D02*
D03*
X380250Y376750D02*
D03*
X328250Y366750D02*
D03*
X305250Y376750D02*
D03*
X253250Y366750D02*
D03*
X230250Y376750D02*
D03*
X178250Y366750D02*
D03*
X155250Y376750D02*
D03*
X103250Y366750D02*
D03*
X61500Y376750D02*
D03*
X9500Y366750D02*
D03*
D42*
X446264Y31000D02*
D03*
X441736D02*
D03*
X498986Y99018D02*
D03*
X503514D02*
D03*
Y94268D02*
D03*
X498986D02*
D03*
X441764Y26250D02*
D03*
X437236D02*
D03*
D43*
X454201Y101250D02*
D03*
X441799Y101250D02*
D03*
X417951Y176250D02*
D03*
X405549Y176250D02*
D03*
X399201Y251250D02*
D03*
X386799Y251250D02*
D03*
X173299Y251250D02*
D03*
X185701Y251250D02*
D03*
X60799Y345000D02*
D03*
X73201Y345000D02*
D03*
X1118799Y345000D02*
D03*
X1131201Y345000D02*
D03*
X166951D02*
D03*
X154549Y345000D02*
D03*
X1010701Y251250D02*
D03*
X998299Y251250D02*
D03*
X1104451Y251250D02*
D03*
X1092049Y251250D02*
D03*
X1216951Y251250D02*
D03*
X1204549Y251250D02*
D03*
X635701Y345000D02*
D03*
X623299Y345000D02*
D03*
X560701Y345000D02*
D03*
X548299Y345000D02*
D03*
X485701Y345000D02*
D03*
X473299Y345000D02*
D03*
X391951Y345000D02*
D03*
X379549Y345000D02*
D03*
X316951Y345000D02*
D03*
X304549Y345000D02*
D03*
X241951Y345000D02*
D03*
X229549Y345000D02*
D03*
X1048201Y101250D02*
D03*
X1035799Y101250D02*
D03*
X945201Y101250D02*
D03*
X932799Y101250D02*
D03*
X841951Y101250D02*
D03*
X829549Y101250D02*
D03*
X691951Y101250D02*
D03*
X679549Y101250D02*
D03*
X766951Y101250D02*
D03*
X754549Y101250D02*
D03*
X1365201Y345000D02*
D03*
X1352799Y345000D02*
D03*
X616951Y101250D02*
D03*
X604549Y101250D02*
D03*
X541951Y101250D02*
D03*
X529549Y101250D02*
D03*
X1291951Y345000D02*
D03*
X1279549Y345000D02*
D03*
X1216951Y345000D02*
D03*
X1204549Y345000D02*
D03*
X391951Y101250D02*
D03*
X379549Y101250D02*
D03*
X1029451Y345000D02*
D03*
X1017049Y345000D02*
D03*
X954451Y345000D02*
D03*
X942049Y345000D02*
D03*
X260701Y251250D02*
D03*
X248299Y251250D02*
D03*
X335701Y251250D02*
D03*
X323299Y251250D02*
D03*
X485701Y251250D02*
D03*
X473299Y251250D02*
D03*
X560701Y251250D02*
D03*
X548299Y251250D02*
D03*
X785701Y251250D02*
D03*
X773299Y251250D02*
D03*
X860701Y251250D02*
D03*
X848299Y251250D02*
D03*
X635701Y251250D02*
D03*
X623299Y251250D02*
D03*
X710701Y251250D02*
D03*
X698299Y251250D02*
D03*
X654451Y176250D02*
D03*
X642049Y176250D02*
D03*
X579451Y176250D02*
D03*
X567049Y176250D02*
D03*
X504451Y176250D02*
D03*
X492049Y176250D02*
D03*
X1076402Y176250D02*
D03*
X1064000Y176250D02*
D03*
X954451Y176250D02*
D03*
X942049Y176250D02*
D03*
X879451Y176250D02*
D03*
X867049Y176250D02*
D03*
X804451Y176250D02*
D03*
X792049Y176250D02*
D03*
X729451Y176250D02*
D03*
X717049Y176250D02*
D03*
X1365201Y176250D02*
D03*
X1352799Y176250D02*
D03*
X1216951Y176250D02*
D03*
X1204549Y176250D02*
D03*
X1291951Y176250D02*
D03*
X1279549Y176250D02*
D03*
X804451Y26250D02*
D03*
X792049Y26250D02*
D03*
X729451Y26250D02*
D03*
X717049Y26250D02*
D03*
X607701Y26250D02*
D03*
X595299Y26250D02*
D03*
X419951Y26250D02*
D03*
X407549Y26250D02*
D03*
X270201Y26250D02*
D03*
X257799Y26250D02*
D03*
X91951Y251250D02*
D03*
X79549Y251250D02*
D03*
X1365201Y26250D02*
D03*
X1352799Y26250D02*
D03*
X1254451Y26250D02*
D03*
X1242049Y26250D02*
D03*
X1123201Y26250D02*
D03*
X1110799Y26250D02*
D03*
X101297Y176250D02*
D03*
X88895Y176250D02*
D03*
X204451Y176250D02*
D03*
X192049Y176250D02*
D03*
X279451Y176250D02*
D03*
X267049Y176250D02*
D03*
X354451Y176250D02*
D03*
X342049Y176250D02*
D03*
X1365201Y101250D02*
D03*
X1352799Y101250D02*
D03*
X1216951Y101250D02*
D03*
X1204549Y101250D02*
D03*
X1291951Y101250D02*
D03*
X1279549Y101250D02*
D03*
X1123201Y101250D02*
D03*
X1110799Y101250D02*
D03*
X1048201Y26250D02*
D03*
X1035799Y26250D02*
D03*
X973201Y26250D02*
D03*
X960799Y26250D02*
D03*
X888951Y26250D02*
D03*
X876549Y26250D02*
D03*
X935701Y251250D02*
D03*
X923299Y251250D02*
D03*
X176451Y26250D02*
D03*
X164049Y26250D02*
D03*
X82701Y26250D02*
D03*
X70299Y26250D02*
D03*
X879451Y345000D02*
D03*
X867049Y345000D02*
D03*
X804451Y345000D02*
D03*
X792049Y345000D02*
D03*
X710701Y345000D02*
D03*
X698299Y345000D02*
D03*
X1291951Y251250D02*
D03*
X1279549Y251250D02*
D03*
X1365201Y251250D02*
D03*
X1352799Y251250D02*
D03*
X120201Y101250D02*
D03*
X107799Y101250D02*
D03*
X316951Y101250D02*
D03*
X304549Y101250D02*
D03*
X241951Y101250D02*
D03*
X229549Y101250D02*
D03*
D44*
X484784Y59003D02*
D03*
Y57428D02*
D03*
Y55853D02*
D03*
Y54279D02*
D03*
Y52704D02*
D03*
Y51129D02*
D03*
Y49554D02*
D03*
Y47980D02*
D03*
Y46405D02*
D03*
Y44830D02*
D03*
Y43255D02*
D03*
Y41680D02*
D03*
Y40106D02*
D03*
Y38531D02*
D03*
X457717D02*
D03*
Y40106D02*
D03*
Y41680D02*
D03*
Y43255D02*
D03*
Y44830D02*
D03*
Y46405D02*
D03*
Y47980D02*
D03*
Y49554D02*
D03*
Y51129D02*
D03*
Y52704D02*
D03*
Y54279D02*
D03*
Y55853D02*
D03*
Y57428D02*
D03*
Y59003D02*
D03*
D45*
X481489Y35234D02*
D03*
X479914D02*
D03*
X478339D02*
D03*
X476764D02*
D03*
X475189D02*
D03*
X473615D02*
D03*
X472040D02*
D03*
X470465D02*
D03*
X468890D02*
D03*
X467315D02*
D03*
X465740D02*
D03*
X464166D02*
D03*
X462591D02*
D03*
X461016D02*
D03*
Y62301D02*
D03*
X462591D02*
D03*
X464166D02*
D03*
X465740D02*
D03*
X467315D02*
D03*
X468890D02*
D03*
X470465D02*
D03*
X472040D02*
D03*
X473615D02*
D03*
X475189D02*
D03*
X476764D02*
D03*
X478339D02*
D03*
X479914D02*
D03*
X481489D02*
D03*
D46*
X471250Y48768D02*
D03*
D47*
X432000Y4750D02*
D03*
X440750D02*
D03*
X449500D02*
D03*
D48*
X1074000Y313018D02*
D03*
Y316482D02*
D03*
X1093750Y313018D02*
D03*
Y316482D02*
D03*
X487250Y94285D02*
D03*
Y97750D02*
D03*
X494250Y8535D02*
D03*
Y12000D02*
D03*
X469250Y12000D02*
D03*
Y8535D02*
D03*
X466500Y26250D02*
D03*
Y22785D02*
D03*
X475250Y75535D02*
D03*
Y79000D02*
D03*
X470500Y26250D02*
D03*
Y22785D02*
D03*
X471250Y75535D02*
D03*
Y79000D02*
D03*
X455250Y71285D02*
D03*
Y74750D02*
D03*
X459250Y71285D02*
D03*
Y74750D02*
D03*
D49*
X1082000Y312986D02*
D03*
Y317514D02*
D03*
X1101750Y312986D02*
D03*
Y317514D02*
D03*
X474500Y22254D02*
D03*
Y26781D02*
D03*
X467250Y70754D02*
D03*
Y75282D02*
D03*
X463250Y70754D02*
D03*
Y75282D02*
D03*
X1097750Y312986D02*
D03*
Y317514D02*
D03*
X1078000Y312986D02*
D03*
Y317514D02*
D03*
D50*
X487274Y88018D02*
D03*
Y83018D02*
D03*
Y78018D02*
D03*
Y73018D02*
D03*
X515226D02*
D03*
Y78018D02*
D03*
Y83018D02*
D03*
Y88018D02*
D03*
D51*
X486081Y6921D02*
D03*
Y13614D02*
D03*
X477419Y6921D02*
D03*
Y13614D02*
D03*
D52*
X448732Y59018D02*
D03*
X445268D02*
D03*
X448732Y44768D02*
D03*
X445268D02*
D03*
X493768Y59018D02*
D03*
X497232D02*
D03*
X493768Y44768D02*
D03*
X497232D02*
D03*
X448732Y63018D02*
D03*
X445268D02*
D03*
D53*
X443905Y321213D02*
D03*
Y299165D02*
D03*
D54*
X428650Y316094D02*
D03*
Y312158D02*
D03*
Y308221D02*
D03*
Y304283D02*
D03*
M02*
