M48
;Layer_Color=9474304
;FILE_FORMAT=2:4
INCH,TZ
;TYPE=PLATED
T1F00S00C0.0118
T2F00S00C0.0120
T3F00S00C0.0160
T4F00S00C0.0394
;TYPE=NON_PLATED
T6F00S00C0.0670
T7F00S00C0.1181
T8F00S00C0.1181
T9F00S00C0.1570
%
T01
X2750Y2500
X12125
X6500Y10000
X18625
X26125
X21500Y2500
X33550Y4800
X33100Y10000
X36950
X41125
X44179Y8607
X42800Y5125
X45850Y3275
X45900Y2975
X45375Y2000
X45450Y1675
X46825Y3850
X47200Y5900
X48875Y6275
X49325Y8800
X49629Y14125
X56125Y10000
X55250Y2500
X67375
X74875
X71125Y9975
X63625
X78625
X89000
X91750Y2500
X83375
X99247Y2505
X99250Y9975
X106750
Y2500
X119875
X123625Y9975
X116125
X131125Y10000
Y2500
Y17500
Y25000
X123625
Y17500
X116125
Y25000
X104875
X95500
X102000Y17500
X89875
X82375
X80500Y25000
X88000
X73000
X65500
X67375Y17500
X74875
X59875
X52375
X49875Y21550
X50500Y25000
X58000
X46350Y29175
X35498Y24998
X35900Y20475
X29875Y17500
X22382Y17505
X20500Y25000
X28000
X13000Y25002
X3625Y25000
X4625Y17500
X14875
X11125Y34375
X1750
X18625
X26125
X33625
X39225Y32000
Y31250
X43000Y34375
X47275Y31600
X50500Y34375
X58000
X65500
X74875
X82375
X89875
X97375
X107825
X108800Y31600
X110750
X116125Y34375
X123625
X131125
T02
X44075Y475
X43725Y2325
X44200Y4477
Y5902
Y6302
X46415Y5893
X46700Y5300
Y4875
Y4450
X46650Y1952
X45925Y7802
X45525
X47125Y8227
X47525
X47550Y5300
Y4875
Y4450
X47125
Y4877
Y5300
X47050Y1952
X47250Y802
X49100Y1252
X50050Y4477
Y5908
X51025Y7377
X50725Y9900
X107400Y31975
X109375
T03
X35250Y12550
X111350Y24300
X45950Y29625
X42300Y30425
X34250Y25300
X34709Y24619
T04
X107816Y32722
X108800
X107816Y38431
X109784
Y32722
T06
X2738Y3800
X6737
X12112
X10488Y11300
X6488
X18675
X22675
X26175
X30175
X25487Y3800
X21488
X16113
X36488
X40487
X41175Y11300
X37675
X33675
X45175
X48675
X52675
X56175
X60175
X59237Y3800
X55237
X67425
X71425
X74925
X75175Y11300
X71175
X67675
X63675
X78675
X82675
X88988
X92987
X91800Y3800
X87362
X83363
X78925
X95800
X99300
X103300
X106800
Y11300
X103300
X99300
X110800
X116175
X120175
X123675
X123925Y3800
X119925
X110800
X131175
X135175
Y11300
X131175
X127675
Y18800
X131175
X135175
Y26300
X131175
X127675
X123675
X120175
X116175
Y18800
X120175
X123675
X106112
X102113
X93925
X95550Y26300
X99550
X104925
X108925
X92050
X88050
X84550
X80550
X78925Y18800
X82425
X86425
X89925
X74925
X71425
X67425
X63925
X65550Y26300
X69550
X73050
X77050
X62050
X58050
X54550
X50550
X47050
X48925Y18800
X52425
X56425
X59925
X44925
X41425
X37425
X33925
X35550Y26300
X32050
X39550
X43050
X28050
X24550
X20550
X17050
X18925Y18800
X22425
X26425
X29925
X14925
X8612
X4613
X3675Y26300
X7675
X13050
X11175Y35675
X15175
X5800
X1800
X18675
X22675
X26175
X30175
X33675
X37675
X43050
X47050
X50550
X54550
X58050
X62050
X65550
X69550
X74925
X78925
X82425
X86425
X89925
X93925
X97425
X101425
X116175
X120175
X123675
X127675
X131175
X135175
T07
X5738Y5800
X15113
X9488Y13300
X21675
X29175
X24488Y5800
X39488
X36675Y13300
X44175
X51675
X59175
X58238Y5800
X70425
X77925
X74175Y13300
X66675
X81675
X91987
X86362Y5800
X94800
X102300
Y13300
X109800
Y5800
X122925
X119175Y13300
X126675
X134175
Y5800
Y20800
X126675
Y28300
X134175
X119175
Y20800
X105112
X107925Y28300
X98550
X91050
X83550
X85425Y20800
X92925
X77925
X70425
X62925
X68550Y28300
X76050
X61050
X53550
X55425Y20800
X47925
X40425
X32925
X38550Y28300
X46050
X31050
X23550
X16050
X17925Y20800
X25425
X7613
X6675Y28300
X4800Y37675
X14175
X21675
X29175
X36675
X46050
X53550
X61050
X68550
X77925
X85425
X92925
X100425
X119175
X126675
X134175
T08
X3237Y4800
X12613
X6988Y12300
X19175
X26675
X21988Y4800
X36988
X34175Y12300
X41675
X49175
X56675
X55738Y4800
X67925
X75425
X71675Y12300
X64175
X79175
X89487
X92300Y4800
X83862
X99800
X107300
Y12300
X99800
X116675
X124175
X120425Y4800
X131675
Y12300
Y19800
Y27300
X124175
Y19800
X116675
Y27300
X105425
X96050
X102612Y19800
X90425
X82925
X81050Y27300
X88550
X73550
X66050
X67925Y19800
X75425
X60425
X52925
X51050Y27300
X58550
X43550
X36050
X37925Y19800
X45425
X30425
X22925
X21050Y27300
X28550
X13550
X15425Y19800
X5113
X4175Y27300
X2300Y36675
X11675
X19175
X26675
X34175
X43550
X51050
X58550
X66050
X75425
X82925
X90425
X97925
X116675
X124175
X131675
T09
X4737Y3800
X14112
X8487Y11300
X20675
X28175
X23488Y3800
X38488
X35675Y11300
X43175
X50675
X58175
X57238Y3800
X69425
X76925
X73175Y11300
X65675
X80675
X90988
X85363Y3800
X93800
X101300
X108800
Y11300
X101300
X118175
X121925Y3800
X133175
Y11300
X125675
Y18800
X133175
Y26300
X125675
X118175
Y18800
X104113
X106925Y26300
X97550
X90050
X82550
X84425Y18800
X91925
X76925
X69425
X67550Y26300
X75050
X60050
X52550
X54425Y18800
X61925
X46925
X39425
X31925
X37550Y26300
X45050
X30050
X22550
X24425Y18800
X16925
X15050Y26300
X5675
X6612Y18800
X3800Y35675
X13175
X20675
X28175
X35675
X45050
X52550
X60050
X67550
X76925
X84425
X91925
X99425
X118175
X125675
X133175
M30
