G04*
G04 #@! TF.GenerationSoftware,Altium Limited,Altium Designer,22.5.1 (42)*
G04*
G04 Layer_Color=8388736*
%FSLAX25Y25*%
%MOIN*%
G70*
G04*
G04 #@! TF.SameCoordinates,6575D538-9FDD-43DE-8B67-50E4B2F97E8D*
G04*
G04*
G04 #@! TF.FilePolarity,Negative*
G04*
G01*
G75*
%ADD13C,0.00787*%
%ADD17R,0.04528X0.04134*%
%ADD18R,0.02953X0.05315*%
%ADD19R,0.03110X0.02953*%
%ADD20R,0.07677X0.05315*%
%ADD21R,0.06693X0.02953*%
%ADD22R,0.05906X0.03937*%
%ADD23R,0.02953X0.03110*%
%ADD24R,0.08465X0.06496*%
%ADD25R,0.08465X0.15551*%
%ADD26R,0.03543X0.02953*%
%ADD27R,0.09173X0.08465*%
%ADD28R,0.01772X0.05118*%
%ADD29C,0.26181*%
%ADD30C,0.01870*%
%ADD31C,0.26181*%
D13*
X115000Y149994D02*
X114997Y149994D01*
X130895Y134235D02*
X130863Y135230D01*
X130769Y136221D01*
X130613Y137204D01*
X130394Y138175D01*
X130115Y139130D01*
X129776Y140066D01*
X129379Y140979D01*
X128925Y141865D01*
X128416Y142720D01*
X127853Y143542D01*
X127240Y144326D01*
X126579Y145070D01*
X125872Y145771D01*
X125122Y146426D01*
X124333Y147032D01*
X123506Y147587D01*
X122647Y148089D01*
X121757Y148536D01*
X120841Y148925D01*
X119902Y149256D01*
X118944Y149527D01*
X117971Y149737D01*
X116987Y149885D01*
X115995Y149971D01*
X115000Y149994D01*
X130894Y134099D02*
X130895Y134235D01*
X130894Y134097D02*
X130894Y134099D01*
X130894Y15999D02*
Y16000D01*
X130894Y15999D02*
Y16000D01*
X115001Y106D02*
X115999Y140D01*
X116992Y236D01*
X117977Y393D01*
X118951Y612D01*
X119908Y892D01*
X120847Y1232D01*
X121762Y1629D01*
X122651Y2083D01*
X123509Y2591D01*
X124334Y3152D01*
X125122Y3764D01*
X125871Y4424D01*
X126576Y5130D01*
X127236Y5878D01*
X127848Y6666D01*
X128410Y7491D01*
X128918Y8350D01*
X129372Y9238D01*
X129769Y10154D01*
X130108Y11092D01*
X130388Y12050D01*
X130607Y13023D01*
X130765Y14009D01*
X130861Y15002D01*
X130894Y15999D01*
X115001Y106D02*
X115001D01*
X107Y134098D02*
X107Y134097D01*
X16001Y149994D02*
X15000Y149971D01*
X14003Y149884D01*
X13014Y149734D01*
X12036Y149522D01*
X11073Y149248D01*
X10130Y148913D01*
X9209Y148520D01*
X8316Y148068D01*
X7453Y147561D01*
X6624Y147000D01*
X5832Y146388D01*
X5081Y145726D01*
X4374Y145018D01*
X3712Y144267D01*
X3100Y143475D01*
X2539Y142647D01*
X2032Y141783D01*
X1581Y140890D01*
X1187Y139970D01*
X852Y139026D01*
X579Y138064D01*
X366Y137086D01*
X216Y136096D01*
X130Y135099D01*
X107Y134098D01*
X16004Y149994D02*
X16001Y149994D01*
X107Y16000D02*
X138Y15002D01*
X232Y14008D01*
X388Y13022D01*
X606Y12047D01*
X885Y11089D01*
X1223Y10149D01*
X1619Y9233D01*
X2073Y8343D01*
X2581Y7484D01*
X3142Y6658D01*
X3754Y5869D01*
X4414Y5120D01*
X5121Y4414D01*
X5869Y3754D01*
X6658Y3142D01*
X7484Y2580D01*
X8344Y2072D01*
X9233Y1619D01*
X10150Y1222D01*
X11089Y884D01*
X12048Y606D01*
X13022Y388D01*
X14008Y231D01*
X15003Y138D01*
X16001Y106D01*
X130894Y134099D02*
Y134100D01*
X130894Y16000D02*
X130894Y134099D01*
X115000Y149994D02*
X115001D01*
X16001D02*
X115000D01*
X16001D02*
X16001D01*
X107Y134098D02*
Y134100D01*
Y134098D02*
X107Y16000D01*
Y16000D02*
Y16000D01*
X16001Y106D02*
X115001D01*
X16001D02*
X16001D01*
D17*
X101000Y110843D02*
D03*
Y116157D02*
D03*
D18*
X69241Y93929D02*
D03*
X65501D02*
D03*
X61760D02*
D03*
Y103771D02*
D03*
X65501D02*
D03*
X69241D02*
D03*
D19*
X65501Y84368D02*
D03*
Y87832D02*
D03*
D20*
X6245Y40165D02*
D03*
Y62213D02*
D03*
D21*
X21501Y45283D02*
D03*
Y49220D02*
D03*
Y53158D02*
D03*
Y57095D02*
D03*
D22*
X32001Y111931D02*
D03*
Y103269D02*
D03*
D23*
X17768Y102600D02*
D03*
X21233D02*
D03*
X21233Y68600D02*
D03*
X17768D02*
D03*
D24*
X31902Y76545D02*
D03*
Y85600D02*
D03*
Y94655D02*
D03*
D25*
X7099Y85600D02*
D03*
D26*
X76237Y110100D02*
D03*
X80764D02*
D03*
X50237D02*
D03*
X54764D02*
D03*
D27*
X45382Y122883D02*
D03*
X85619D02*
D03*
X45382Y138356D02*
D03*
X85619D02*
D03*
D28*
X77508Y120620D02*
D03*
X74359D02*
D03*
X72390D02*
D03*
X68453D02*
D03*
X62548D02*
D03*
X58611D02*
D03*
X56642D02*
D03*
X53493D02*
D03*
X52312D02*
D03*
X55461D02*
D03*
X60579D02*
D03*
X64516D02*
D03*
X66485D02*
D03*
X70422D02*
D03*
X75540D02*
D03*
X78690D02*
D03*
D29*
X115001Y134100D02*
D03*
D30*
X54123Y124852D02*
D03*
X76878D02*
D03*
D31*
X16001Y16000D02*
D03*
X115001D02*
D03*
X16001Y134100D02*
D03*
M02*
