G04*
G04 #@! TF.GenerationSoftware,Altium Limited,Altium Designer,22.5.1 (42)*
G04*
G04 Layer_Physical_Order=2*
G04 Layer_Color=16711680*
%FSLAX24Y24*%
%MOIN*%
G70*
G04*
G04 #@! TF.SameCoordinates,E74D48CB-94F9-49E8-A9D1-9DB3703255D2*
G04*
G04*
G04 #@! TF.FilePolarity,Positive*
G04*
G01*
G75*
%ADD12C,0.0079*%
%ADD16C,0.0079*%
%ADD45C,0.0118*%
%ADD47C,0.2559*%
%ADD48C,0.2559*%
%ADD49C,0.0128*%
%ADD50C,0.0236*%
G36*
X11789Y14857D02*
X11976Y14808D01*
X12154Y14735D01*
X12322Y14639D01*
X12475Y14521D01*
X12612Y14385D01*
X12729Y14232D01*
X12825Y14064D01*
X12898Y13886D01*
X12947Y13699D01*
X12971Y13507D01*
X12970Y13411D01*
X12970Y13410D01*
X12970Y13410D01*
Y11350D01*
X8363D01*
X7909Y11803D01*
X5178D01*
X4725Y11350D01*
X3675D01*
Y14880D01*
X11500Y14880D01*
X11500Y14880D01*
X11501Y14880D01*
X11597Y14881D01*
X11789Y14857D01*
D02*
G37*
G36*
X1599Y14880D02*
X1600Y14880D01*
X1600Y14880D01*
X3571D01*
X3621Y14880D01*
Y11350D01*
X3637Y11312D01*
X3675Y11296D01*
X4725D01*
X4763Y11312D01*
X4763Y11312D01*
X5201Y11749D01*
X7887D01*
X8324Y11312D01*
X8363Y11296D01*
X8363Y11296D01*
X12970D01*
Y1600D01*
X12970Y1504D01*
X12944Y1313D01*
X12894Y1127D01*
X12820Y949D01*
X12724Y783D01*
X12606Y630D01*
X12470Y494D01*
X12317Y376D01*
X12151Y280D01*
X11973Y206D01*
X11787Y156D01*
X11596Y130D01*
X11500Y130D01*
X1600Y130D01*
X1504D01*
X1313Y155D01*
X1127Y205D01*
X949Y279D01*
X782Y375D01*
X629Y493D01*
X493Y629D01*
X375Y782D01*
X279Y949D01*
X205Y1127D01*
X155Y1313D01*
X130Y1504D01*
Y1600D01*
X130Y13410D01*
X130Y13410D01*
X130Y13411D01*
X129Y13507D01*
X153Y13699D01*
X202Y13886D01*
X275Y14064D01*
X371Y14232D01*
X489Y14385D01*
X625Y14521D01*
X778Y14639D01*
X946Y14735D01*
X1125Y14808D01*
X1311Y14857D01*
X1503Y14881D01*
X1599Y14880D01*
D02*
G37*
%LPC*%
G36*
X6938Y12628D02*
X6871D01*
X6809Y12603D01*
X6778Y12571D01*
X6577D01*
X6545Y12603D01*
X6484Y12628D01*
X6417D01*
X6355Y12603D01*
X6308Y12555D01*
X6282Y12493D01*
Y12427D01*
X6308Y12365D01*
X6355Y12317D01*
X6417Y12292D01*
X6484D01*
X6545Y12317D01*
X6577Y12349D01*
X6778D01*
X6809Y12317D01*
X6871Y12292D01*
X6938D01*
X7000Y12317D01*
X7047Y12365D01*
X7072Y12427D01*
Y12493D01*
X7047Y12555D01*
X7000Y12603D01*
X6938Y12628D01*
D02*
G37*
G36*
X7723Y12663D02*
X7652D01*
X7587Y12636D01*
X7537Y12586D01*
X7510Y12521D01*
Y12450D01*
X7537Y12384D01*
X7587Y12334D01*
X7652Y12307D01*
X7723D01*
X7789Y12334D01*
X7839Y12384D01*
X7866Y12450D01*
Y12521D01*
X7839Y12586D01*
X7789Y12636D01*
X7723Y12663D01*
D02*
G37*
G36*
X5448D02*
X5377D01*
X5311Y12636D01*
X5261Y12586D01*
X5234Y12521D01*
Y12450D01*
X5261Y12384D01*
X5311Y12334D01*
X5377Y12307D01*
X5448D01*
X5513Y12334D01*
X5563Y12384D01*
X5590Y12450D01*
Y12521D01*
X5563Y12586D01*
X5513Y12636D01*
X5448Y12663D01*
D02*
G37*
G36*
X1705Y14740D02*
X1495D01*
X1289Y14707D01*
X1090Y14642D01*
X903Y14547D01*
X734Y14424D01*
X586Y14276D01*
X463Y14107D01*
X368Y13920D01*
X303Y13721D01*
X271Y13515D01*
Y13305D01*
X303Y13099D01*
X368Y12900D01*
X463Y12713D01*
X586Y12544D01*
X734Y12396D01*
X903Y12273D01*
X1090Y12178D01*
X1289Y12113D01*
X1495Y12080D01*
X1705D01*
X1911Y12113D01*
X2110Y12178D01*
X2297Y12273D01*
X2466Y12396D01*
X2614Y12544D01*
X2737Y12713D01*
X2832Y12900D01*
X2897Y13099D01*
X2930Y13305D01*
Y13515D01*
X2897Y13721D01*
X2832Y13920D01*
X2737Y14107D01*
X2614Y14276D01*
X2466Y14424D01*
X2297Y14547D01*
X2110Y14642D01*
X1911Y14707D01*
X1705Y14740D01*
D02*
G37*
G36*
X11605Y2930D02*
X11395D01*
X11189Y2897D01*
X10990Y2832D01*
X10803Y2737D01*
X10634Y2614D01*
X10486Y2466D01*
X10363Y2297D01*
X10268Y2110D01*
X10203Y1911D01*
X10171Y1705D01*
Y1495D01*
X10203Y1289D01*
X10268Y1090D01*
X10363Y903D01*
X10486Y734D01*
X10634Y586D01*
X10803Y463D01*
X10990Y368D01*
X11189Y303D01*
X11395Y270D01*
X11605D01*
X11811Y303D01*
X12010Y368D01*
X12197Y463D01*
X12366Y586D01*
X12514Y734D01*
X12637Y903D01*
X12732Y1090D01*
X12797Y1289D01*
X12830Y1495D01*
Y1705D01*
X12797Y1911D01*
X12732Y2110D01*
X12637Y2297D01*
X12514Y2466D01*
X12366Y2614D01*
X12197Y2737D01*
X12010Y2832D01*
X11811Y2897D01*
X11605Y2930D01*
D02*
G37*
G36*
X1705D02*
X1495D01*
X1289Y2897D01*
X1090Y2832D01*
X903Y2737D01*
X734Y2614D01*
X586Y2466D01*
X463Y2297D01*
X368Y2110D01*
X303Y1911D01*
X271Y1705D01*
Y1495D01*
X303Y1289D01*
X368Y1090D01*
X463Y903D01*
X586Y734D01*
X734Y586D01*
X903Y463D01*
X1090Y368D01*
X1289Y303D01*
X1495Y270D01*
X1705D01*
X1911Y303D01*
X2110Y368D01*
X2297Y463D01*
X2466Y586D01*
X2614Y734D01*
X2737Y903D01*
X2832Y1090D01*
X2897Y1289D01*
X2930Y1495D01*
Y1705D01*
X2897Y1911D01*
X2832Y2110D01*
X2737Y2297D01*
X2614Y2466D01*
X2466Y2614D01*
X2297Y2737D01*
X2110Y2832D01*
X1911Y2897D01*
X1705Y2930D01*
D02*
G37*
%LPD*%
D12*
X13089Y13423D02*
G03*
X11500Y14999I-1576J0D01*
G01*
X13089Y13410D02*
G03*
X13089Y13423I-1576J14D01*
G01*
X11500Y11D02*
G03*
X13089Y1600I-4J1593D01*
G01*
X1600Y14999D02*
G03*
X11Y13410I-14J-1576D01*
G01*
X11Y1600D02*
G03*
X1600Y11I1589J0D01*
G01*
X13089Y13410D02*
Y13410D01*
X13089Y1600D02*
X13089Y13410D01*
X11500Y14999D02*
X11500D01*
X1600D02*
X11500D01*
X1600D02*
X1600D01*
X11Y13410D02*
Y13410D01*
Y13410D02*
X11Y1600D01*
Y1600D02*
Y1600D01*
X1600Y11D02*
X11500D01*
X1600D02*
X1600D01*
D16*
X11500Y14999D02*
D03*
X13089Y13410D02*
D03*
X13089Y1600D02*
D03*
X13089D02*
D03*
X11500Y11D02*
D03*
X11Y13410D02*
D03*
X1600Y14999D02*
D03*
D45*
X6450Y12460D02*
X6904D01*
D47*
X1600Y13410D02*
D03*
Y1600D02*
D03*
X11500D02*
D03*
D48*
Y13410D02*
D03*
D49*
X5412Y12485D02*
D03*
X7688D02*
D03*
D50*
X3875Y13825D02*
D03*
Y12300D02*
D03*
X2675Y4525D02*
D03*
X8450Y11010D02*
D03*
X4650D02*
D03*
X7825Y11635D02*
D03*
X5275D02*
D03*
X6550Y8135D02*
D03*
X6904Y12460D02*
D03*
X6450D02*
D03*
X3792Y7654D02*
D03*
X2475Y6860D02*
D03*
X1450Y10260D02*
D03*
M02*
